<?xml version="1.0" encoding="utf-8"?>
<!-- Generator: Adobe Illustrator 26.3.1, SVG Export Plug-In . SVG Version: 6.00 Build 0)  -->
<svg version="1.1" xmlns="http://www.w3.org/2000/svg" xmlns:xlink="http://www.w3.org/1999/xlink" x="0px" y="0px"
	 viewBox="0 0 306 144" style="enable-background:new 0 0 306 144;" xml:space="preserve">
<style type="text/css">
	.st0{fill:none;stroke:#58595B;stroke-width:0.7445;stroke-miterlimit:10;}
	.st1{fill:#4D4D4F;}
	.st2{fill:#282829;}
	.st3{fill:#414042;}
</style>
<g id="Layer_1">
	<rect x="46.16" y="37.49" class="st0" width="213.91" height="59.03"/>
	<g>
		<path class="st1" d="M56.71,66.98c0-1.4,0.49-2.59,1.48-3.58c0.99-0.99,2.18-1.48,3.58-1.48s2.59,0.49,3.58,1.48
			c0.99,0.99,1.48,2.18,1.48,3.58s-0.49,2.59-1.48,3.58c-0.99,0.99-2.18,1.48-3.58,1.48s-2.59-0.49-3.58-1.48
			C57.2,69.57,56.71,68.38,56.71,66.98z M57.72,66.98c0,1.11,0.4,2.07,1.19,2.86c0.79,0.79,1.74,1.18,2.86,1.18s2.07-0.39,2.86-1.18
			c0.79-0.79,1.19-1.74,1.19-2.86s-0.4-2.07-1.19-2.86c-0.79-0.79-1.74-1.18-2.86-1.18s-2.07,0.39-2.86,1.18
			C58.11,64.91,57.72,65.86,57.72,66.98z"/>
		<path class="st1" d="M69.88,66.98c0-1.4,0.49-2.59,1.48-3.58c0.99-0.99,2.18-1.48,3.58-1.48s2.59,0.49,3.58,1.48
			C79.5,64.38,80,65.58,80,66.98s-0.49,2.59-1.48,3.58c-0.99,0.99-2.18,1.48-3.58,1.48s-2.59-0.49-3.58-1.48
			C70.37,69.57,69.88,68.38,69.88,66.98z M70.89,66.98c0,1.11,0.4,2.07,1.19,2.86c0.79,0.79,1.74,1.18,2.86,1.18
			s2.07-0.39,2.86-1.18c0.79-0.79,1.19-1.74,1.19-2.86s-0.4-2.07-1.19-2.86c-0.79-0.79-1.74-1.18-2.86-1.18s-2.07,0.39-2.86,1.18
			C71.29,64.91,70.89,65.86,70.89,66.98z"/>
		<path class="st1" d="M83.06,66.98c0-1.4,0.49-2.59,1.48-3.58c0.99-0.99,2.18-1.48,3.58-1.48s2.59,0.49,3.58,1.48
			c0.99,0.99,1.48,2.18,1.48,3.58s-0.49,2.59-1.48,3.58c-0.99,0.99-2.18,1.48-3.58,1.48s-2.59-0.49-3.58-1.48
			C83.55,69.57,83.06,68.38,83.06,66.98z M84.07,66.98c0,1.11,0.4,2.07,1.19,2.86c0.79,0.79,1.74,1.18,2.86,1.18
			s2.07-0.39,2.86-1.18c0.79-0.79,1.19-1.74,1.19-2.86s-0.4-2.07-1.19-2.86c-0.79-0.79-1.74-1.18-2.86-1.18s-2.07,0.39-2.86,1.18
			C84.46,64.91,84.07,65.86,84.07,66.98z"/>
		<path class="st1" d="M96.23,66.98c0-1.4,0.49-2.59,1.48-3.58c0.99-0.99,2.18-1.48,3.58-1.48s2.59,0.49,3.58,1.48
			c0.99,0.99,1.48,2.18,1.48,3.58s-0.49,2.59-1.48,3.58c-0.99,0.99-2.18,1.48-3.58,1.48s-2.59-0.49-3.58-1.48
			C96.72,69.57,96.23,68.38,96.23,66.98z M97.24,66.98c0,1.11,0.4,2.07,1.19,2.86c0.79,0.79,1.74,1.18,2.86,1.18
			s2.07-0.39,2.86-1.18c0.79-0.79,1.19-1.74,1.19-2.86s-0.4-2.07-1.19-2.86c-0.79-0.79-1.74-1.18-2.86-1.18s-2.07,0.39-2.86,1.18
			C97.64,64.91,97.24,65.86,97.24,66.98z"/>
		<path class="st1" d="M109.41,66.98c0-1.4,0.49-2.59,1.48-3.58c0.99-0.99,2.18-1.48,3.58-1.48s2.59,0.49,3.58,1.48
			c0.99,0.99,1.48,2.18,1.48,3.58s-0.49,2.59-1.48,3.58c-0.99,0.99-2.18,1.48-3.58,1.48s-2.59-0.49-3.58-1.48
			C109.9,69.57,109.41,68.38,109.41,66.98z M110.42,66.98c0,1.11,0.4,2.07,1.19,2.86c0.79,0.79,1.74,1.18,2.86,1.18
			s2.07-0.39,2.86-1.18c0.79-0.79,1.19-1.74,1.19-2.86s-0.4-2.07-1.19-2.86c-0.79-0.79-1.74-1.18-2.86-1.18s-2.07,0.39-2.86,1.18
			C110.81,64.91,110.42,65.86,110.42,66.98z"/>
		<path class="st1" d="M122.58,66.98c0-1.4,0.49-2.59,1.48-3.58c0.99-0.99,2.18-1.48,3.58-1.48s2.59,0.49,3.58,1.48
			c0.99,0.99,1.48,2.18,1.48,3.58s-0.49,2.59-1.48,3.58c-0.99,0.99-2.18,1.48-3.58,1.48s-2.59-0.49-3.58-1.48
			C123.08,69.57,122.58,68.38,122.58,66.98z M123.59,66.98c0,1.11,0.4,2.07,1.19,2.86c0.79,0.79,1.74,1.18,2.86,1.18
			s2.07-0.39,2.86-1.18c0.79-0.79,1.19-1.74,1.19-2.86s-0.4-2.07-1.19-2.86c-0.79-0.79-1.74-1.18-2.86-1.18s-2.07,0.39-2.86,1.18
			C123.99,64.91,123.59,65.86,123.59,66.98z"/>
		<path class="st1" d="M135.76,66.98c0-1.4,0.49-2.59,1.48-3.58c0.99-0.99,2.18-1.48,3.58-1.48s2.59,0.49,3.58,1.48
			c0.99,0.99,1.48,2.18,1.48,3.58s-0.49,2.59-1.48,3.58c-0.99,0.99-2.18,1.48-3.58,1.48s-2.59-0.49-3.58-1.48
			C136.25,69.57,135.76,68.38,135.76,66.98z M136.77,66.98c0,1.11,0.4,2.07,1.19,2.86c0.79,0.79,1.74,1.18,2.86,1.18
			s2.07-0.39,2.86-1.18c0.79-0.79,1.19-1.74,1.19-2.86s-0.4-2.07-1.19-2.86c-0.79-0.79-1.74-1.18-2.86-1.18s-2.07,0.39-2.86,1.18
			C137.17,64.91,136.77,65.86,136.77,66.98z"/>
		<path class="st1" d="M148.93,66.98c0-1.4,0.49-2.59,1.48-3.58c0.99-0.99,2.18-1.48,3.58-1.48s2.59,0.49,3.58,1.48
			c0.99,0.99,1.48,2.18,1.48,3.58s-0.49,2.59-1.48,3.58c-0.99,0.99-2.18,1.48-3.58,1.48s-2.59-0.49-3.58-1.48
			C149.43,69.57,148.93,68.38,148.93,66.98z M149.95,66.98c0,1.11,0.4,2.07,1.19,2.86c0.79,0.79,1.74,1.18,2.86,1.18
			s2.07-0.39,2.86-1.18c0.79-0.79,1.19-1.74,1.19-2.86s-0.4-2.07-1.19-2.86c-0.79-0.79-1.74-1.18-2.86-1.18s-2.07,0.39-2.86,1.18
			C150.34,64.91,149.95,65.86,149.95,66.98z"/>
		<path class="st1" d="M162.11,66.98c0-1.4,0.49-2.59,1.48-3.58c0.99-0.99,2.18-1.48,3.58-1.48s2.59,0.49,3.58,1.48
			c0.99,0.99,1.48,2.18,1.48,3.58s-0.49,2.59-1.48,3.58c-0.99,0.99-2.18,1.48-3.58,1.48s-2.59-0.49-3.58-1.48
			C162.6,69.57,162.11,68.38,162.11,66.98z M163.12,66.98c0,1.11,0.4,2.07,1.19,2.86c0.79,0.79,1.74,1.18,2.86,1.18
			s2.07-0.39,2.86-1.18c0.79-0.79,1.19-1.74,1.19-2.86s-0.4-2.07-1.19-2.86c-0.79-0.79-1.74-1.18-2.86-1.18s-2.07,0.39-2.86,1.18
			C163.52,64.91,163.12,65.86,163.12,66.98z"/>
		<path class="st1" d="M175.29,66.98c0-1.4,0.49-2.59,1.48-3.58c0.99-0.99,2.18-1.48,3.58-1.48s2.59,0.49,3.58,1.48
			c0.99,0.99,1.48,2.18,1.48,3.58s-0.49,2.59-1.48,3.58c-0.99,0.99-2.18,1.48-3.58,1.48s-2.59-0.49-3.58-1.48
			C175.78,69.57,175.29,68.38,175.29,66.98z M176.3,66.98c0,1.11,0.4,2.07,1.19,2.86c0.79,0.79,1.74,1.18,2.86,1.18
			s2.07-0.39,2.86-1.18c0.79-0.79,1.19-1.74,1.19-2.86s-0.4-2.07-1.19-2.86c-0.79-0.79-1.74-1.18-2.86-1.18s-2.07,0.39-2.86,1.18
			C176.69,64.91,176.3,65.86,176.3,66.98z"/>
		<path class="st1" d="M188.46,66.98c0-1.4,0.49-2.59,1.48-3.58c0.99-0.99,2.18-1.48,3.58-1.48s2.59,0.49,3.58,1.48
			c0.99,0.99,1.48,2.18,1.48,3.58s-0.49,2.59-1.48,3.58c-0.99,0.99-2.18,1.48-3.58,1.48s-2.59-0.49-3.58-1.48
			C188.95,69.57,188.46,68.38,188.46,66.98z M189.47,66.98c0,1.11,0.4,2.07,1.19,2.86c0.79,0.79,1.74,1.18,2.86,1.18
			s2.07-0.39,2.86-1.18c0.79-0.79,1.19-1.74,1.19-2.86s-0.4-2.07-1.19-2.86c-0.79-0.79-1.74-1.18-2.86-1.18s-2.07,0.39-2.86,1.18
			C189.87,64.91,189.47,65.86,189.47,66.98z"/>
		<path class="st1" d="M201.64,66.98c0-1.4,0.49-2.59,1.48-3.58c0.99-0.99,2.18-1.48,3.58-1.48s2.59,0.49,3.58,1.48
			c0.99,0.99,1.48,2.18,1.48,3.58s-0.49,2.59-1.48,3.58c-0.99,0.99-2.18,1.48-3.58,1.48s-2.59-0.49-3.58-1.48
			C202.13,69.57,201.64,68.38,201.64,66.98z M202.65,66.98c0,1.11,0.4,2.07,1.19,2.86c0.79,0.79,1.74,1.18,2.86,1.18
			s2.07-0.39,2.86-1.18c0.79-0.79,1.19-1.74,1.19-2.86s-0.4-2.07-1.19-2.86c-0.79-0.79-1.74-1.18-2.86-1.18s-2.07,0.39-2.86,1.18
			C203.04,64.91,202.65,65.86,202.65,66.98z"/>
		<path class="st1" d="M214.81,66.98c0-1.4,0.49-2.59,1.48-3.58c0.99-0.99,2.18-1.48,3.58-1.48s2.59,0.49,3.58,1.48
			c0.99,0.99,1.48,2.18,1.48,3.58s-0.49,2.59-1.48,3.58c-0.99,0.99-2.18,1.48-3.58,1.48s-2.59-0.49-3.58-1.48
			C215.31,69.57,214.81,68.38,214.81,66.98z M215.82,66.98c0,1.11,0.4,2.07,1.19,2.86c0.79,0.79,1.74,1.18,2.86,1.18
			s2.07-0.39,2.86-1.18c0.79-0.79,1.19-1.74,1.19-2.86s-0.4-2.07-1.19-2.86c-0.79-0.79-1.74-1.18-2.86-1.18s-2.07,0.39-2.86,1.18
			C216.22,64.91,215.82,65.86,215.82,66.98z"/>
		<path class="st1" d="M227.99,66.98c0-1.4,0.49-2.59,1.48-3.58c0.99-0.99,2.18-1.48,3.58-1.48s2.59,0.49,3.58,1.48
			c0.99,0.99,1.48,2.18,1.48,3.58s-0.49,2.59-1.48,3.58c-0.99,0.99-2.18,1.48-3.58,1.48s-2.59-0.49-3.58-1.48
			C228.48,69.57,227.99,68.38,227.99,66.98z M229,66.98c0,1.11,0.4,2.07,1.19,2.86c0.79,0.79,1.74,1.18,2.86,1.18
			s2.07-0.39,2.86-1.18c0.79-0.79,1.19-1.74,1.19-2.86s-0.4-2.07-1.19-2.86c-0.79-0.79-1.74-1.18-2.86-1.18s-2.07,0.39-2.86,1.18
			C229.39,64.91,229,65.86,229,66.98z"/>
		<path class="st1" d="M241.16,66.98c0-1.4,0.49-2.59,1.48-3.58c0.99-0.99,2.18-1.48,3.58-1.48s2.59,0.49,3.58,1.48
			c0.99,0.99,1.48,2.18,1.48,3.58s-0.49,2.59-1.48,3.58c-0.99,0.99-2.18,1.48-3.58,1.48s-2.59-0.49-3.58-1.48
			C241.66,69.57,241.16,68.38,241.16,66.98z M242.17,66.98c0,1.11,0.4,2.07,1.19,2.86c0.79,0.79,1.74,1.18,2.86,1.18
			s2.07-0.39,2.86-1.18c0.79-0.79,1.19-1.74,1.19-2.86s-0.4-2.07-1.19-2.86c-0.79-0.79-1.74-1.18-2.86-1.18s-2.07,0.39-2.86,1.18
			C242.57,64.91,242.17,65.86,242.17,66.98z"/>
		<path class="st1" d="M56.71,79.98c0-1.4,0.49-2.59,1.48-3.58c0.99-0.99,2.18-1.48,3.58-1.48s2.59,0.49,3.58,1.48
			c0.99,0.99,1.48,2.18,1.48,3.58c0,1.4-0.49,2.59-1.48,3.58c-0.99,0.99-2.18,1.48-3.58,1.48s-2.59-0.49-3.58-1.48
			C57.2,82.57,56.71,81.38,56.71,79.98z M57.72,79.98c0,1.11,0.4,2.07,1.19,2.86c0.79,0.79,1.74,1.18,2.86,1.18s2.07-0.39,2.86-1.18
			c0.79-0.79,1.19-1.74,1.19-2.86c0-1.12-0.4-2.07-1.19-2.86c-0.79-0.79-1.74-1.18-2.86-1.18s-2.07,0.39-2.86,1.18
			C58.11,77.91,57.72,78.86,57.72,79.98z"/>
		<path class="st1" d="M69.88,79.98c0-1.4,0.49-2.59,1.48-3.58c0.99-0.99,2.18-1.48,3.58-1.48s2.59,0.49,3.58,1.48
			C79.5,77.38,80,78.58,80,79.98c0,1.4-0.49,2.59-1.48,3.58c-0.99,0.99-2.18,1.48-3.58,1.48s-2.59-0.49-3.58-1.48
			C70.37,82.57,69.88,81.38,69.88,79.98z M70.89,79.98c0,1.11,0.4,2.07,1.19,2.86c0.79,0.79,1.74,1.18,2.86,1.18
			s2.07-0.39,2.86-1.18c0.79-0.79,1.19-1.74,1.19-2.86c0-1.12-0.4-2.07-1.19-2.86c-0.79-0.79-1.74-1.18-2.86-1.18
			s-2.07,0.39-2.86,1.18C71.29,77.91,70.89,78.86,70.89,79.98z"/>
		<path class="st1" d="M83.06,79.98c0-1.4,0.49-2.59,1.48-3.58c0.99-0.99,2.18-1.48,3.58-1.48s2.59,0.49,3.58,1.48
			c0.99,0.99,1.48,2.18,1.48,3.58c0,1.4-0.49,2.59-1.48,3.58c-0.99,0.99-2.18,1.48-3.58,1.48s-2.59-0.49-3.58-1.48
			C83.55,82.57,83.06,81.38,83.06,79.98z M84.07,79.98c0,1.11,0.4,2.07,1.19,2.86c0.79,0.79,1.74,1.18,2.86,1.18
			s2.07-0.39,2.86-1.18c0.79-0.79,1.19-1.74,1.19-2.86c0-1.12-0.4-2.07-1.19-2.86c-0.79-0.79-1.74-1.18-2.86-1.18
			s-2.07,0.39-2.86,1.18C84.46,77.91,84.07,78.86,84.07,79.98z"/>
		<path class="st1" d="M96.23,79.98c0-1.4,0.49-2.59,1.48-3.58c0.99-0.99,2.18-1.48,3.58-1.48s2.59,0.49,3.58,1.48
			c0.99,0.99,1.48,2.18,1.48,3.58c0,1.4-0.49,2.59-1.48,3.58c-0.99,0.99-2.18,1.48-3.58,1.48s-2.59-0.49-3.58-1.48
			C96.72,82.57,96.23,81.38,96.23,79.98z M97.24,79.98c0,1.11,0.4,2.07,1.19,2.86c0.79,0.79,1.74,1.18,2.86,1.18
			s2.07-0.39,2.86-1.18c0.79-0.79,1.19-1.74,1.19-2.86c0-1.12-0.4-2.07-1.19-2.86c-0.79-0.79-1.74-1.18-2.86-1.18
			s-2.07,0.39-2.86,1.18C97.64,77.91,97.24,78.86,97.24,79.98z"/>
		<path class="st1" d="M109.41,79.98c0-1.4,0.49-2.59,1.48-3.58c0.99-0.99,2.18-1.48,3.58-1.48s2.59,0.49,3.58,1.48
			c0.99,0.99,1.48,2.18,1.48,3.58c0,1.4-0.49,2.59-1.48,3.58c-0.99,0.99-2.18,1.48-3.58,1.48s-2.59-0.49-3.58-1.48
			C109.9,82.57,109.41,81.38,109.41,79.98z M110.42,79.98c0,1.11,0.4,2.07,1.19,2.86c0.79,0.79,1.74,1.18,2.86,1.18
			s2.07-0.39,2.86-1.18c0.79-0.79,1.19-1.74,1.19-2.86c0-1.12-0.4-2.07-1.19-2.86c-0.79-0.79-1.74-1.18-2.86-1.18
			s-2.07,0.39-2.86,1.18C110.81,77.91,110.42,78.86,110.42,79.98z"/>
		<path class="st1" d="M122.58,79.98c0-1.4,0.49-2.59,1.48-3.58c0.99-0.99,2.18-1.48,3.58-1.48s2.59,0.49,3.58,1.48
			c0.99,0.99,1.48,2.18,1.48,3.58c0,1.4-0.49,2.59-1.48,3.58c-0.99,0.99-2.18,1.48-3.58,1.48s-2.59-0.49-3.58-1.48
			C123.08,82.57,122.58,81.38,122.58,79.98z M123.59,79.98c0,1.11,0.4,2.07,1.19,2.86c0.79,0.79,1.74,1.18,2.86,1.18
			s2.07-0.39,2.86-1.18c0.79-0.79,1.19-1.74,1.19-2.86c0-1.12-0.4-2.07-1.19-2.86c-0.79-0.79-1.74-1.18-2.86-1.18
			s-2.07,0.39-2.86,1.18C123.99,77.91,123.59,78.86,123.59,79.98z"/>
		<path class="st1" d="M135.76,79.98c0-1.4,0.49-2.59,1.48-3.58c0.99-0.99,2.18-1.48,3.58-1.48s2.59,0.49,3.58,1.48
			c0.99,0.99,1.48,2.18,1.48,3.58c0,1.4-0.49,2.59-1.48,3.58c-0.99,0.99-2.18,1.48-3.58,1.48s-2.59-0.49-3.58-1.48
			C136.25,82.57,135.76,81.38,135.76,79.98z M136.77,79.98c0,1.11,0.4,2.07,1.19,2.86c0.79,0.79,1.74,1.18,2.86,1.18
			s2.07-0.39,2.86-1.18c0.79-0.79,1.19-1.74,1.19-2.86c0-1.12-0.4-2.07-1.19-2.86c-0.79-0.79-1.74-1.18-2.86-1.18
			s-2.07,0.39-2.86,1.18C137.17,77.91,136.77,78.86,136.77,79.98z"/>
		<path class="st1" d="M148.93,79.98c0-1.4,0.49-2.59,1.48-3.58c0.99-0.99,2.18-1.48,3.58-1.48s2.59,0.49,3.58,1.48
			c0.99,0.99,1.48,2.18,1.48,3.58c0,1.4-0.49,2.59-1.48,3.58c-0.99,0.99-2.18,1.48-3.58,1.48s-2.59-0.49-3.58-1.48
			C149.43,82.57,148.93,81.38,148.93,79.98z M149.95,79.98c0,1.11,0.4,2.07,1.19,2.86c0.79,0.79,1.74,1.18,2.86,1.18
			s2.07-0.39,2.86-1.18c0.79-0.79,1.19-1.74,1.19-2.86c0-1.12-0.4-2.07-1.19-2.86c-0.79-0.79-1.74-1.18-2.86-1.18
			s-2.07,0.39-2.86,1.18C150.34,77.91,149.95,78.86,149.95,79.98z"/>
		<path class="st1" d="M162.11,79.98c0-1.4,0.49-2.59,1.48-3.58c0.99-0.99,2.18-1.48,3.58-1.48s2.59,0.49,3.58,1.48
			c0.99,0.99,1.48,2.18,1.48,3.58c0,1.4-0.49,2.59-1.48,3.58c-0.99,0.99-2.18,1.48-3.58,1.48s-2.59-0.49-3.58-1.48
			C162.6,82.57,162.11,81.38,162.11,79.98z M163.12,79.98c0,1.11,0.4,2.07,1.19,2.86c0.79,0.79,1.74,1.18,2.86,1.18
			s2.07-0.39,2.86-1.18c0.79-0.79,1.19-1.74,1.19-2.86c0-1.12-0.4-2.07-1.19-2.86c-0.79-0.79-1.74-1.18-2.86-1.18
			s-2.07,0.39-2.86,1.18C163.52,77.91,163.12,78.86,163.12,79.98z"/>
		<path class="st1" d="M175.29,79.98c0-1.4,0.49-2.59,1.48-3.58c0.99-0.99,2.18-1.48,3.58-1.48s2.59,0.49,3.58,1.48
			c0.99,0.99,1.48,2.18,1.48,3.58c0,1.4-0.49,2.59-1.48,3.58c-0.99,0.99-2.18,1.48-3.58,1.48s-2.59-0.49-3.58-1.48
			C175.78,82.57,175.29,81.38,175.29,79.98z M176.3,79.98c0,1.11,0.4,2.07,1.19,2.86c0.79,0.79,1.74,1.18,2.86,1.18
			s2.07-0.39,2.86-1.18c0.79-0.79,1.19-1.74,1.19-2.86c0-1.12-0.4-2.07-1.19-2.86c-0.79-0.79-1.74-1.18-2.86-1.18
			s-2.07,0.39-2.86,1.18C176.69,77.91,176.3,78.86,176.3,79.98z"/>
		<path class="st1" d="M188.46,79.98c0-1.4,0.49-2.59,1.48-3.58c0.99-0.99,2.18-1.48,3.58-1.48s2.59,0.49,3.58,1.48
			c0.99,0.99,1.48,2.18,1.48,3.58c0,1.4-0.49,2.59-1.48,3.58c-0.99,0.99-2.18,1.48-3.58,1.48s-2.59-0.49-3.58-1.48
			C188.95,82.57,188.46,81.38,188.46,79.98z M189.47,79.98c0,1.11,0.4,2.07,1.19,2.86c0.79,0.79,1.74,1.18,2.86,1.18
			s2.07-0.39,2.86-1.18c0.79-0.79,1.19-1.74,1.19-2.86c0-1.12-0.4-2.07-1.19-2.86c-0.79-0.79-1.74-1.18-2.86-1.18
			s-2.07,0.39-2.86,1.18C189.87,77.91,189.47,78.86,189.47,79.98z"/>
		<path class="st1" d="M201.64,79.98c0-1.4,0.49-2.59,1.48-3.58c0.99-0.99,2.18-1.48,3.58-1.48s2.59,0.49,3.58,1.48
			c0.99,0.99,1.48,2.18,1.48,3.58c0,1.4-0.49,2.59-1.48,3.58c-0.99,0.99-2.18,1.48-3.58,1.48s-2.59-0.49-3.58-1.48
			C202.13,82.57,201.64,81.38,201.64,79.98z M202.65,79.98c0,1.11,0.4,2.07,1.19,2.86c0.79,0.79,1.74,1.18,2.86,1.18
			s2.07-0.39,2.86-1.18c0.79-0.79,1.19-1.74,1.19-2.86c0-1.12-0.4-2.07-1.19-2.86c-0.79-0.79-1.74-1.18-2.86-1.18
			s-2.07,0.39-2.86,1.18C203.04,77.91,202.65,78.86,202.65,79.98z"/>
		<path class="st1" d="M214.81,79.98c0-1.4,0.49-2.59,1.48-3.58c0.99-0.99,2.18-1.48,3.58-1.48s2.59,0.49,3.58,1.48
			c0.99,0.99,1.48,2.18,1.48,3.58c0,1.4-0.49,2.59-1.48,3.58c-0.99,0.99-2.18,1.48-3.58,1.48s-2.59-0.49-3.58-1.48
			C215.31,82.57,214.81,81.38,214.81,79.98z M215.82,79.98c0,1.11,0.4,2.07,1.19,2.86c0.79,0.79,1.74,1.18,2.86,1.18
			s2.07-0.39,2.86-1.18c0.79-0.79,1.19-1.74,1.19-2.86c0-1.12-0.4-2.07-1.19-2.86c-0.79-0.79-1.74-1.18-2.86-1.18
			s-2.07,0.39-2.86,1.18C216.22,77.91,215.82,78.86,215.82,79.98z"/>
		<path class="st1" d="M227.99,79.98c0-1.4,0.49-2.59,1.48-3.58c0.99-0.99,2.18-1.48,3.58-1.48s2.59,0.49,3.58,1.48
			c0.99,0.99,1.48,2.18,1.48,3.58c0,1.4-0.49,2.59-1.48,3.58c-0.99,0.99-2.18,1.48-3.58,1.48s-2.59-0.49-3.58-1.48
			C228.48,82.57,227.99,81.38,227.99,79.98z M229,79.98c0,1.11,0.4,2.07,1.19,2.86c0.79,0.79,1.74,1.18,2.86,1.18
			s2.07-0.39,2.86-1.18c0.79-0.79,1.19-1.74,1.19-2.86c0-1.12-0.4-2.07-1.19-2.86c-0.79-0.79-1.74-1.18-2.86-1.18
			s-2.07,0.39-2.86,1.18C229.39,77.91,229,78.86,229,79.98z"/>
		<path class="st1" d="M241.16,79.98c0-1.4,0.49-2.59,1.48-3.58c0.99-0.99,2.18-1.48,3.58-1.48s2.59,0.49,3.58,1.48
			c0.99,0.99,1.48,2.18,1.48,3.58c0,1.4-0.49,2.59-1.48,3.58c-0.99,0.99-2.18,1.48-3.58,1.48s-2.59-0.49-3.58-1.48
			C241.66,82.57,241.16,81.38,241.16,79.98z M242.17,79.98c0,1.11,0.4,2.07,1.19,2.86c0.79,0.79,1.74,1.18,2.86,1.18
			s2.07-0.39,2.86-1.18c0.79-0.79,1.19-1.74,1.19-2.86c0-1.12-0.4-2.07-1.19-2.86c-0.79-0.79-1.74-1.18-2.86-1.18
			s-2.07,0.39-2.86,1.18C242.57,77.91,242.17,78.86,242.17,79.98z"/>
	</g>
	<g>
		<path class="st1" d="M65.51,57c-0.19-0.07-0.47-0.12-0.68-0.12H57.4v-0.31c0.47,0,0.66-0.18,0.66-0.72v-6.33
			c0-0.52-0.23-0.72-0.66-0.72v-0.31h7.35c0.31,0,0.55-0.04,0.72-0.1l0.54,2.52l-0.3,0.11c-0.2-0.43-0.49-0.64-0.97-0.64h-4.17v1.32
			h3.05c0.52,0,0.71-0.16,0.71-0.5h0.3v2.88h-0.3c0-0.35-0.18-0.5-0.71-0.5h-3.05V55h4.15c0.5,0,0.82-0.23,1.02-0.67l0.31,0.11
			L65.51,57z"/>
		<path class="st1" d="M72.02,56.88v-0.31c0.29,0,0.46-0.13,0.46-0.36c0-0.18-0.11-0.34-0.26-0.55l-1-1.32h-0.02l-1.14,1.5
			c-0.11,0.14-0.17,0.28-0.17,0.41c0,0.19,0.14,0.32,0.4,0.32v0.31h-3.89v-0.31c0.29,0,0.61-0.16,0.97-0.61l2.57-3.19l-2.58-3.41
			c-0.32-0.42-0.58-0.56-0.96-0.56v-0.31h4.28v0.31c-0.28,0-0.43,0.14-0.43,0.35c0,0.12,0.05,0.23,0.13,0.35l1.09,1.51h0.02
			l1.16-1.51c0.1-0.12,0.14-0.25,0.14-0.34c0-0.24-0.18-0.36-0.44-0.36v-0.31h3.9v0.31c-0.31,0-0.62,0.18-0.94,0.56l-2.57,3.19
			l2.6,3.41c0.28,0.37,0.62,0.61,0.91,0.61v0.31H72.02z"/>
		<path class="st1" d="M81.3,54.33c-0.29,0-0.84,0-1.22-0.05v1.54c0,0.55,0.2,0.76,0.66,0.76v0.31h-3.83v-0.31
			c0.43,0,0.66-0.19,0.66-0.73v-6.32c0-0.49-0.2-0.72-0.66-0.72v-0.31c1.15-0.07,2.79-0.14,4.04-0.14c3.17,0,4.83,0.85,4.83,3
			C85.79,53.27,84.11,54.33,81.3,54.33z M81.12,50.29c-0.28,0-0.66,0.01-1.04,0.04v2.23c0.32,0.04,0.86,0.05,1.08,0.05
			c1.02,0,2.13-0.19,2.13-1.18C83.29,50.4,82.08,50.29,81.12,50.29z"/>
		<path class="st1" d="M94.73,57c-0.19-0.07-0.47-0.12-0.68-0.12h-7.42v-0.31c0.47,0,0.66-0.18,0.66-0.72v-6.33
			c0-0.52-0.23-0.72-0.66-0.72v-0.31h7.35c0.31,0,0.55-0.04,0.72-0.1l0.54,2.52l-0.3,0.11c-0.2-0.43-0.49-0.64-0.97-0.64h-4.17v1.32
			h3.05c0.52,0,0.71-0.16,0.71-0.5h0.3v2.88h-0.3c0-0.35-0.18-0.5-0.71-0.5h-3.05V55h4.15c0.5,0,0.82-0.23,1.02-0.67l0.31,0.11
			L94.73,57z"/>
		<path class="st1" d="M101.75,56.88c-0.54-0.66-1.03-1.76-1.31-2.6l-1.22-0.02v1.61c0,0.54,0.22,0.71,0.66,0.71v0.31h-3.83v-0.31
			c0.49,0,0.66-0.16,0.66-0.71v-6.39c0-0.46-0.13-0.67-0.66-0.67v-0.31c0.94-0.05,3.07-0.13,4.02-0.13c2.63,0,4.86,0.68,4.86,2.95
			c0,1.24-0.79,2.1-2.15,2.53c0.37,0.88,0.86,1.55,1.49,2.36c0.17,0.2,0.31,0.37,0.66,0.37v0.31H101.75z M100.24,50.3
			c-0.35,0-0.74,0.02-1.02,0.04v2.22c0.3,0.04,0.73,0.04,1.06,0.04c1.31,0,2.1-0.29,2.1-1.16C102.38,50.53,101.66,50.3,100.24,50.3z
			"/>
		<path class="st1" d="M105.65,56.88v-0.31c0.46,0,0.66-0.23,0.66-0.71v-6.34c0-0.48-0.22-0.72-0.66-0.72v-0.31h3.83v0.31
			c-0.46,0-0.66,0.23-0.66,0.72v6.34c0,0.48,0.19,0.71,0.66,0.71v0.31H105.65z"/>
		<path class="st1" d="M118.48,57c-0.19-0.07-0.47-0.12-0.68-0.12h-7.42v-0.31c0.47,0,0.66-0.18,0.66-0.72v-6.33
			c0-0.52-0.23-0.72-0.66-0.72v-0.31h7.35c0.31,0,0.55-0.04,0.72-0.1l0.54,2.52l-0.3,0.11c-0.2-0.43-0.49-0.64-0.97-0.64h-4.17v1.32
			h3.05c0.52,0,0.71-0.16,0.71-0.5h0.3v2.88h-0.3c0-0.35-0.18-0.5-0.71-0.5h-3.05V55h4.15c0.5,0,0.82-0.23,1.02-0.67l0.31,0.11
			L118.48,57z"/>
		<path class="st1" d="M128.94,49.52v7.36h-2.12c-0.02-0.25-0.14-0.48-0.36-0.72l-3.81-4.27v3.96c0,0.5,0.22,0.72,0.66,0.72v0.31
			h-3.49v-0.31c0.43,0,0.65-0.22,0.65-0.72v-6.33c0-0.52-0.18-0.72-0.66-0.72v-0.31h3.13c0.01,0.17,0.1,0.41,0.26,0.6l3.54,3.92
			v-3.49c0-0.55-0.18-0.72-0.66-0.72v-0.31h3.53v0.31C129.16,48.8,128.94,48.98,128.94,49.52z"/>
		<path class="st1" d="M138.23,56.96c-0.08-0.04-0.23-0.08-0.4-0.08c-0.19,0-1.18,0.24-2.48,0.24c-2.89,0-4.92-1.85-4.92-4.44
			c0-2.52,2.09-4.41,4.92-4.41c1.42,0,2.16,0.25,2.49,0.25c0.17,0,0.32-0.05,0.4-0.08l0.64,2.67l-0.28,0.11
			c-0.35-0.76-1.09-1.13-2.58-1.13c-1.56,0-3.01,0.92-3.01,2.61c0,1.59,1.22,2.59,3.01,2.59c1.49,0,2.22-0.31,2.58-1.1l0.28,0.1
			L138.23,56.96z"/>
		<path class="st1" d="M147.82,57c-0.19-0.07-0.47-0.12-0.68-0.12h-7.42v-0.31c0.47,0,0.66-0.18,0.66-0.72v-6.33
			c0-0.52-0.23-0.72-0.66-0.72v-0.31h7.35c0.31,0,0.55-0.04,0.72-0.1l0.54,2.52l-0.3,0.11c-0.2-0.43-0.49-0.64-0.97-0.64h-4.17v1.32
			h3.05c0.52,0,0.71-0.16,0.71-0.5h0.3v2.88h-0.3c0-0.35-0.18-0.5-0.71-0.5h-3.05V55h4.15c0.5,0,0.82-0.23,1.02-0.67l0.31,0.11
			L147.82,57z"/>
	</g>
	<g>
		<path class="st2" d="M66.17,69.58c-2.56-1.91-4.95-4-7.19-6.28c-0.61-0.63-1.42,0.75-0.85,1.33c2.24,2.28,4.63,4.37,7.19,6.28
			C66.04,71.45,66.82,70.07,66.17,69.58z"/>
	</g>
	<g>
		<path class="st2" d="M59.68,71.08c1.91-2.56,4-4.95,6.28-7.19c0.63-0.61-0.75-1.42-1.33-0.85c-2.28,2.24-4.37,4.63-6.28,7.19
			C57.81,70.95,59.19,71.74,59.68,71.08z"/>
	</g>
	<g>
		<path class="st2" d="M79.17,69.58c-2.56-1.91-4.95-4-7.19-6.28c-0.61-0.63-1.42,0.75-0.85,1.33c2.24,2.28,4.63,4.37,7.19,6.28
			C79.04,71.45,79.83,70.07,79.17,69.58z"/>
	</g>
	<g>
		<path class="st2" d="M72.69,71.08c1.91-2.56,4-4.95,6.28-7.19c0.63-0.61-0.75-1.42-1.33-0.85c-2.28,2.24-4.37,4.63-6.28,7.19
			C70.82,70.95,72.2,71.74,72.69,71.08z"/>
	</g>
	<g>
		<path class="st2" d="M92.17,69.58c-2.56-1.91-4.95-4-7.19-6.28c-0.61-0.63-1.42,0.75-0.85,1.33c2.24,2.28,4.63,4.37,7.19,6.28
			C92.04,71.45,92.83,70.07,92.17,69.58z"/>
	</g>
	<g>
		<path class="st2" d="M85.69,71.08c1.91-2.56,4-4.95,6.28-7.19c0.63-0.61-0.75-1.42-1.33-0.85c-2.28,2.24-4.37,4.63-6.28,7.19
			C83.82,70.95,85.2,71.74,85.69,71.08z"/>
	</g>
	<g>
		<path class="st2" d="M105.17,69.58c-2.56-1.91-4.95-4-7.19-6.28c-0.61-0.63-1.42,0.75-0.85,1.33c2.24,2.28,4.63,4.37,7.19,6.28
			C105.04,71.45,105.83,70.07,105.17,69.58z"/>
	</g>
	<g>
		<path class="st2" d="M98.69,71.08c1.91-2.56,4-4.95,6.28-7.19c0.63-0.61-0.75-1.42-1.33-0.85c-2.28,2.24-4.37,4.63-6.28,7.19
			C96.82,70.95,98.2,71.74,98.69,71.08z"/>
	</g>
</g>
<g id="Layer_11">
	<g>
		<path class="st3" d="M61.54,71.36c-2.88,0-4.32-1.97-4.32-4.25c0-2.81,2.79-4.25,4.15-4.41h0.59c2.79,0,4.15,2.35,4.15,4.33
			C66.11,69.46,64.93,71.36,61.54,71.36z"/>
	</g>
	<g>
		<path class="st3" d="M74.7,71.55c-2.97,0-4.46-2.09-4.46-4.51c0-2.98,2.88-4.51,4.28-4.67h0.61c2.88,0,4.28,2.5,4.28,4.59
			C79.42,69.54,78.19,71.55,74.7,71.55z"/>
	</g>
	<g>
		<path class="st3" d="M87.7,71.68c-2.97,0-4.46-2.09-4.46-4.51c0-2.98,2.88-4.51,4.28-4.67h0.61c2.88,0,4.28,2.5,4.28,4.59
			C92.42,69.66,91.2,71.68,87.7,71.68z"/>
	</g>
</g>
</svg>
