<?xml version="1.0" encoding="utf-8"?>
<!-- Generator: Adobe Illustrator 26.3.1, SVG Export Plug-In . SVG Version: 6.00 Build 0)  -->
<svg version="1.1" id="Layer_1" xmlns="http://www.w3.org/2000/svg" xmlns:xlink="http://www.w3.org/1999/xlink" x="0px" y="0px"
	 viewBox="0 0 306 75.67" style="enable-background:new 0 0 306 75.67;" xml:space="preserve">
<style type="text/css">
	.st0{fill:#414042;}
	.st1{fill:#58595B;}
	.st2{fill:#E6E6E6;}
	.st3{fill:#595959;}
	.st4{fill:#B3B3B3;}
	.st5{fill:none;stroke:#414042;stroke-width:3;stroke-miterlimit:10;}
</style>
<g>
	<g>
		<path class="st0" d="M100.15,45.75v5.23h5.02v2.26h-5.02v5.28h-2.35v-5.28h-5.02v-2.26h5.02v-5.23H100.15z"/>
		<path class="st0" d="M126.52,58.52v-2.21l2.02-1.82c3.41-3.05,5.06-4.8,5.11-6.62c0-1.27-0.77-2.28-2.57-2.28
			c-1.34,0-2.52,0.67-3.34,1.3l-1.03-2.62c1.18-0.89,3-1.61,5.11-1.61c3.53,0,5.47,2.06,5.47,4.9c0,2.62-1.9,4.7-4.15,6.72
			l-1.44,1.2v0.05h5.88v3H126.52z"/>
		<path class="st0" d="M166.55,45.75v5.23h5.02v2.26h-5.02v5.28h-2.35v-5.28h-5.02v-2.26h5.02v-5.23H166.55z"/>
		<path class="st0" d="M197.58,46.16h-0.05l-2.98,1.42l-0.6-2.74l4.13-1.92h3.02v15.6h-3.53V46.16z"/>
		<path class="st0" d="M220.74,50.72v-2.23h12.38v2.23H220.74z M220.74,55.69v-2.23h12.38v2.23H220.74z"/>
	</g>
	<g>
		<path class="st0" d="M100.15,45.75v5.23h5.02v2.26h-5.02v5.28h-2.35v-5.28h-5.02v-2.26h5.02v-5.23H100.15z"/>
		<path class="st0" d="M126.52,58.52v-2.21l2.02-1.82c3.41-3.05,5.06-4.8,5.11-6.62c0-1.27-0.77-2.28-2.57-2.28
			c-1.34,0-2.52,0.67-3.34,1.3l-1.03-2.62c1.18-0.89,3-1.61,5.11-1.61c3.53,0,5.47,2.06,5.47,4.9c0,2.62-1.9,4.7-4.15,6.72
			l-1.44,1.2v0.05h5.88v3H126.52z"/>
		<path class="st0" d="M166.55,45.75v5.23h5.02v2.26h-5.02v5.28h-2.35v-5.28h-5.02v-2.26h5.02v-5.23H166.55z"/>
		<path class="st0" d="M197.58,46.16h-0.05l-2.98,1.42l-0.6-2.74l4.13-1.92h3.02v15.6h-3.53V46.16z"/>
		<path class="st0" d="M220.74,50.72v-2.23h12.38v2.23H220.74z M220.74,55.69v-2.23h12.38v2.23H220.74z"/>
	</g>
</g>
<g>
	<path class="st1" d="M122.09,36c-0.63,0-1.51-0.23-1.82-0.23c-0.17,0-0.31,0.04-0.37,0.07l-0.37-2.29l0.35-0.11
		c0.08,0.2,0.14,0.41,0.31,0.58c0.3,0.3,0.72,0.51,1.62,0.51c0.85,0,1.17-0.27,1.17-0.64c0-0.27-0.19-0.45-1.58-1.06
		c-1.18-0.51-1.75-1.12-1.75-2.01c0-1.28,0.98-2.22,2.83-2.22c0.48,0,1.11,0.17,1.38,0.17c0.17,0,0.3-0.03,0.36-0.06l0.21,2.04
		l-0.29,0.06c-0.06-0.18-0.16-0.35-0.36-0.49c-0.24-0.16-0.54-0.27-1.23-0.27c-0.76,0-1.04,0.28-1.04,0.55
		c0,0.27,0.29,0.47,1.43,0.96c1.02,0.44,1.83,1.01,1.83,2.18C124.77,35.06,124,36,122.09,36z"/>
	<path class="st1" d="M131.01,30.64c-0.08-0.26-0.23-0.43-0.45-0.43h-1.55v4.78c0,0.42,0.12,0.59,0.39,0.59v0.22h-2.59v-0.22
		c0.27,0,0.4-0.17,0.4-0.59v-4.78h-1.52c-0.22,0-0.39,0.16-0.48,0.43l-0.28-0.09l0.37-1.81c0.07,0.03,0.24,0.06,0.51,0.06h4.69
		c0.15,0,0.33-0.03,0.41-0.06l0.37,1.81L131.01,30.64z"/>
	<path class="st1" d="M134.76,35.79v-0.22c0.26,0,0.39-0.11,0.39-0.3c0-0.06-0.04-0.19-0.06-0.25l-0.05-0.17
		c-0.28,0.1-0.69,0.16-1.08,0.16c-0.36,0-0.76-0.06-1.06-0.16l-0.07,0.19c-0.04,0.1-0.06,0.18-0.06,0.25c0,0.2,0.13,0.28,0.34,0.28
		v0.22h-2.59v-0.22c0.25,0,0.33-0.04,0.47-0.45l1.85-5.48c0.03-0.1,0.08-0.29,0.08-0.38c0-0.16-0.08-0.25-0.23-0.25V28.8h2.65v0.22
		c-0.15,0-0.24,0.08-0.24,0.26c0,0.11,0.04,0.24,0.12,0.48l1.79,5.35c0.14,0.41,0.23,0.47,0.47,0.47v0.22H134.76z M133.96,30.76
		L133.96,30.76l-0.73,2.74c0.19,0.06,0.54,0.12,0.77,0.12c0.24,0,0.52-0.04,0.69-0.12L133.96,30.76z"/>
	<path class="st1" d="M142.8,30.64c-0.08-0.26-0.23-0.43-0.45-0.43h-1.55v4.78c0,0.42,0.12,0.59,0.39,0.59v0.22h-2.59v-0.22
		c0.27,0,0.4-0.17,0.4-0.59v-4.78h-1.52c-0.22,0-0.39,0.16-0.48,0.43l-0.28-0.09l0.37-1.81c0.07,0.03,0.24,0.06,0.51,0.06h4.69
		c0.15,0,0.33-0.03,0.41-0.06l0.37,1.81L142.8,30.64z"/>
</g>
<g>
	<path class="st1" d="M189.5,35.79v-0.22c0.26,0,0.39-0.11,0.39-0.3c0-0.06-0.04-0.19-0.06-0.25l-0.05-0.17
		c-0.28,0.1-0.69,0.16-1.08,0.16c-0.36,0-0.76-0.06-1.06-0.16l-0.07,0.19c-0.04,0.1-0.06,0.18-0.06,0.25c0,0.2,0.13,0.28,0.34,0.28
		v0.22h-2.59v-0.22c0.25,0,0.33-0.04,0.47-0.45l1.85-5.48c0.03-0.1,0.08-0.29,0.08-0.38c0-0.16-0.08-0.25-0.23-0.25V28.8h2.65v0.22
		c-0.15,0-0.24,0.08-0.24,0.26c0,0.11,0.04,0.24,0.12,0.48l1.79,5.35c0.14,0.41,0.23,0.47,0.47,0.47v0.22H189.5z M188.71,30.76
		L188.71,30.76l-0.73,2.74c0.19,0.06,0.54,0.12,0.77,0.12c0.24,0,0.52-0.04,0.69-0.12L188.71,30.76z"/>
	<path class="st1" d="M194.9,35.88c-0.87,0-1.83-0.04-2.27-0.09v-0.22c0.27,0,0.4-0.15,0.4-0.57v-5.49c0-0.3-0.17-0.49-0.4-0.5V28.8
		c0.51-0.05,1.38-0.1,2.43-0.1c2.69,0,3.96,1.44,3.96,3.52C199.01,34.4,197.87,35.88,194.9,35.88z M195.39,30.15
		c-0.17,0-0.4,0.01-0.56,0.02v4.23c0.12,0.02,0.36,0.03,0.54,0.03c1.09,0,1.78-0.75,1.78-2.19
		C197.14,30.82,196.38,30.15,195.39,30.15z"/>
	<path class="st1" d="M201.89,35.88c-0.87,0-1.83-0.04-2.27-0.09v-0.22c0.27,0,0.4-0.15,0.4-0.57v-5.49c0-0.3-0.17-0.49-0.4-0.5
		V28.8c0.51-0.05,1.38-0.1,2.43-0.1c2.69,0,3.96,1.44,3.96,3.52C206,34.4,204.86,35.88,201.89,35.88z M202.38,30.15
		c-0.17,0-0.4,0.01-0.56,0.02v4.23c0.12,0.02,0.36,0.03,0.54,0.03c1.09,0,1.78-0.75,1.78-2.19
		C204.13,30.82,203.37,30.15,202.38,30.15z"/>
	<path class="st1" d="M209.12,36c-0.63,0-1.51-0.23-1.82-0.23c-0.17,0-0.31,0.04-0.37,0.07l-0.37-2.29l0.35-0.11
		c0.08,0.2,0.14,0.41,0.31,0.58c0.3,0.3,0.72,0.51,1.62,0.51c0.85,0,1.17-0.27,1.17-0.64c0-0.27-0.19-0.45-1.58-1.06
		c-1.18-0.51-1.75-1.12-1.75-2.01c0-1.28,0.98-2.22,2.83-2.22c0.48,0,1.11,0.17,1.38,0.17c0.17,0,0.3-0.03,0.36-0.06l0.21,2.04
		l-0.29,0.06c-0.06-0.18-0.16-0.35-0.36-0.49c-0.24-0.16-0.54-0.27-1.23-0.27c-0.76,0-1.04,0.28-1.04,0.55
		c0,0.27,0.29,0.47,1.43,0.96c1.02,0.44,1.83,1.01,1.83,2.18C211.8,35.06,211.03,36,209.12,36z"/>
</g>
<g>
	<path class="st1" d="M250.86,13.46v-0.22c0.26,0,0.39-0.11,0.39-0.3c0-0.06-0.04-0.19-0.06-0.25l-0.05-0.17
		c-0.28,0.1-0.69,0.16-1.08,0.16c-0.36,0-0.76-0.06-1.06-0.16l-0.07,0.19c-0.04,0.1-0.06,0.18-0.06,0.25c0,0.2,0.13,0.28,0.34,0.28
		v0.22h-2.59v-0.22c0.25,0,0.33-0.04,0.47-0.45l1.85-5.48c0.03-0.1,0.08-0.29,0.08-0.38c0-0.16-0.08-0.25-0.23-0.25V6.46h2.65v0.22
		c-0.15,0-0.24,0.08-0.24,0.26c0,0.11,0.04,0.24,0.12,0.48l1.79,5.35c0.14,0.41,0.23,0.47,0.47,0.47v0.22H250.86z M250.06,8.42
		L250.06,8.42l-0.73,2.74c0.19,0.06,0.54,0.12,0.77,0.12c0.24,0,0.52-0.04,0.69-0.12L250.06,8.42z"/>
	<path class="st1" d="M259,13.5c0,0-0.15-0.05-0.36-0.05c-0.13,0-0.88,0.14-1.59,0.14c-1.91,0-3.45-1.31-3.45-3.64
		c0-2.43,1.75-3.64,3.45-3.64c0.63,0,1.43,0.12,1.59,0.12c0.21,0,0.36-0.06,0.36-0.06l0.39,2.06l-0.3,0.09
		c-0.2-0.64-1.06-0.75-1.63-0.75c-1.04,0-2,0.64-2,2.19c0,1.56,1.03,2.12,2.03,2.12c0.85,0,1.41-0.19,1.63-0.87l0.31,0.09L259,13.5z
		"/>
	<path class="st1" d="M265.93,8.3c-0.08-0.26-0.23-0.43-0.45-0.43h-1.55v4.78c0,0.42,0.12,0.59,0.39,0.59v0.22h-2.59v-0.22
		c0.27,0,0.4-0.17,0.4-0.59V7.87h-1.52c-0.22,0-0.39,0.16-0.48,0.43l-0.28-0.09l0.37-1.81c0.07,0.03,0.24,0.06,0.51,0.06h4.69
		c0.15,0,0.33-0.03,0.41-0.06l0.37,1.81L265.93,8.3z"/>
	<path class="st1" d="M266.68,13.46v-0.22c0.26,0,0.4-0.15,0.4-0.57V7.18c0-0.3-0.17-0.5-0.4-0.5V6.46h2.6v0.22
		c-0.24,0-0.4,0.13-0.4,0.55v5.44c0,0.41,0.13,0.57,0.4,0.57v0.22H266.68z"/>
	<path class="st1" d="M273.26,13.69c-2.14,0-3.38-1.62-3.38-3.75c0-2.35,1.5-3.71,3.38-3.71c1.89,0,3.39,1.37,3.39,3.71
		C276.65,12.09,275.41,13.69,273.26,13.69z M273.25,7.72c-0.82,0-1.51,0.73-1.51,2.22c0,1.46,0.6,2.27,1.51,2.27
		c0.95,0,1.52-0.82,1.52-2.26C274.77,8.35,274.06,7.72,273.25,7.72z"/>
	<path class="st1" d="M283.5,7.23v6.23h-1.57c-0.01-0.19-0.12-0.45-0.23-0.63l-2.42-3.86h-0.04v3.7c0,0.41,0.12,0.57,0.39,0.57v0.22
		h-2.38v-0.22c0.27,0,0.4-0.15,0.4-0.57V7.18c0-0.3-0.17-0.5-0.4-0.5V6.46h2.55c0.03,0.18,0.1,0.35,0.28,0.64l1.78,2.87h0.04V7.19
		c0-0.38-0.12-0.51-0.4-0.51V6.46h2.39v0.22C283.62,6.68,283.5,6.81,283.5,7.23z"/>
	<path class="st1" d="M252.11,24.67c-0.63,0-1.51-0.23-1.82-0.23c-0.17,0-0.31,0.04-0.37,0.07l-0.37-2.29l0.35-0.11
		c0.08,0.2,0.14,0.41,0.31,0.58c0.3,0.3,0.72,0.51,1.62,0.51c0.85,0,1.17-0.27,1.17-0.64c0-0.27-0.19-0.45-1.58-1.06
		c-1.18-0.51-1.75-1.12-1.75-2.01c0-1.28,0.98-2.22,2.83-2.22c0.48,0,1.11,0.17,1.38,0.17c0.17,0,0.3-0.03,0.36-0.06l0.21,2.04
		l-0.29,0.06c-0.06-0.18-0.16-0.35-0.36-0.49c-0.24-0.16-0.54-0.27-1.23-0.27c-0.76,0-1.04,0.28-1.04,0.55
		c0,0.27,0.29,0.47,1.43,0.96c1.02,0.44,1.83,1.01,1.83,2.18C254.79,23.73,254.02,24.67,252.11,24.67z"/>
	<path class="st1" d="M260.75,24.5c0,0-0.15-0.05-0.36-0.05c-0.13,0-0.88,0.14-1.59,0.14c-1.91,0-3.45-1.31-3.45-3.64
		c0-2.43,1.75-3.64,3.45-3.64c0.63,0,1.43,0.12,1.59,0.12c0.21,0,0.36-0.06,0.36-0.06l0.39,2.06l-0.3,0.09
		c-0.2-0.64-1.06-0.75-1.63-0.75c-1.04,0-2,0.64-2,2.19c0,1.56,1.03,2.12,2.03,2.12c0.85,0,1.41-0.19,1.63-0.87l0.31,0.09
		L260.75,24.5z"/>
	<path class="st1" d="M265.1,24.69c-2.14,0-3.38-1.62-3.38-3.75c0-2.35,1.5-3.71,3.38-3.71c1.89,0,3.39,1.37,3.39,3.71
		C268.49,23.09,267.25,24.69,265.1,24.69z M265.09,18.72c-0.82,0-1.51,0.73-1.51,2.22c0,1.46,0.6,2.27,1.51,2.27
		c0.95,0,1.52-0.82,1.52-2.26C266.61,19.35,265.9,18.72,265.09,18.72z"/>
	<path class="st1" d="M272.98,24.46c-0.28-0.49-0.55-1.44-0.71-2.13c-0.11,0.01-0.3,0.02-0.49,0.02c-0.17,0-0.35-0.01-0.49-0.02
		v1.36c0,0.42,0.13,0.55,0.4,0.55v0.22h-2.6v-0.22c0.25,0,0.4-0.13,0.4-0.55v-5.51c0-0.3-0.14-0.5-0.4-0.5v-0.22
		c0.46-0.02,1.48-0.09,2.5-0.09c2.06,0,3.68,0.37,3.68,2.43c0,1.04-0.69,1.78-1.43,2.09c0.16,0.59,0.57,1.51,0.97,2.08
		c0.13,0.18,0.23,0.27,0.5,0.27v0.22H272.98z M271.83,18.81c-0.21,0-0.41,0.01-0.54,0.02v2.12c0.2,0.02,0.4,0.03,0.59,0.03
		c1.06,0,1.55-0.34,1.55-1.11C273.43,19.16,272.94,18.81,271.83,18.81z"/>
	<path class="st1" d="M280.84,24.57c-0.17-0.06-0.47-0.11-0.66-0.11h-4.31v-0.22c0.27,0,0.4-0.18,0.4-0.52v-5.53
		c0-0.3-0.17-0.52-0.4-0.52v-0.21h4.38c0.15,0,0.48-0.05,0.57-0.07l0.35,1.78l-0.21,0.07c-0.17-0.3-0.29-0.37-0.63-0.37h-2.26v1.21
		h2.06c0.22,0,0.34-0.08,0.34-0.3h0.23v2.03h-0.23c0-0.21-0.12-0.29-0.34-0.29h-2.06v1.5h2.29c0.37,0,0.49-0.1,0.65-0.44l0.24,0.08
		L280.84,24.57z"/>
</g>
<g>
	<g>
		<path class="st0" d="M24.33,74.15h36.13c0.44,0,0.88-0.09,1.28-0.27l18.52-8.26c1.14-0.51,1.87-1.63,1.87-2.88V27
			c0-1.74-1.41-3.15-3.15-3.15h-34.2c-0.39,0-0.77,0.07-1.13,0.21l-20.44,7.88c-1.22,0.47-2.02,1.64-2.02,2.94V71
			C21.18,72.74,22.59,74.15,24.33,74.15z"/>
		<path class="st2" d="M57.62,35.51H27.16c-1.22,0-2.21,0.99-2.21,2.21v30.46c0,1.22,0.99,2.21,2.21,2.21h30.46
			c1.22,0,2.21-0.99,2.21-2.21V37.71C59.82,36.5,58.83,35.51,57.62,35.51z"/>
		<path class="st3" d="M78.97,59.59V29.52c0-0.82-0.39-1.3-1.03-1.3c-0.22,0-0.45,0.05-0.7,0.16l-13.3,5.66
			c-1.21,0.51-2.23,2.05-2.23,3.37v30.46c0,0.8,0.37,1.27,0.99,1.27h0c0.22,0,0.46-0.06,0.71-0.17L76.76,63
			C77.96,62.47,78.97,60.9,78.97,59.59z"/>
		<path class="st4" d="M57.62,33.62c1.47,0,3.85-0.49,5.2-1.06L75.88,27H47.6c-1.47,0-3.88,0.45-5.25,0.98l-14.64,5.64H57.62z"/>
	</g>
	<g>
		<g>
			<path class="st0" d="M37.39,56.94c0.65,0.34,2.14,0.96,3.62,0.96c1.9,0,2.86-0.91,2.86-2.09c0-1.54-1.54-2.23-3.14-2.23h-1.49
				v-2.62h1.42c1.22-0.02,2.78-0.48,2.78-1.8c0-0.94-0.77-1.63-2.3-1.63c-1.27,0-2.62,0.55-3.26,0.94l-0.74-2.64
				c0.94-0.6,2.81-1.18,4.82-1.18c3.34,0,5.18,1.75,5.18,3.89c0,1.66-0.94,2.95-2.86,3.62v0.05c1.87,0.34,3.38,1.75,3.38,3.79
				c0,2.76-2.42,4.78-6.38,4.78c-2.02,0-3.72-0.53-4.63-1.1L37.39,56.94z"/>
		</g>
		<g>
			<path class="st0" d="M37.39,56.94c0.65,0.34,2.14,0.96,3.62,0.96c1.9,0,2.86-0.91,2.86-2.09c0-1.54-1.54-2.23-3.14-2.23h-1.49
				v-2.62h1.42c1.22-0.02,2.78-0.48,2.78-1.8c0-0.94-0.77-1.63-2.3-1.63c-1.27,0-2.62,0.55-3.26,0.94l-0.74-2.64
				c0.94-0.6,2.81-1.18,4.82-1.18c3.34,0,5.18,1.75,5.18,3.89c0,1.66-0.94,2.95-2.86,3.62v0.05c1.87,0.34,3.38,1.75,3.38,3.79
				c0,2.76-2.42,4.78-6.38,4.78c-2.02,0-3.72-0.53-4.63-1.1L37.39,56.94z"/>
		</g>
	</g>
</g>
<circle class="st5" cx="265.38" cy="50.94" r="20.18"/>
<g>
	<path class="st0" d="M269.69,45.49c-0.41-0.02-0.84,0-1.42,0.05c-3.24,0.26-4.68,1.92-5.09,3.74h0.07
		c0.77-0.79,1.85-1.25,3.31-1.25c2.62,0,4.83,1.85,4.83,5.09c0,3.1-2.38,5.64-5.76,5.64c-4.15,0-6.19-3.1-6.19-6.82
		c0-2.93,1.08-5.38,2.76-6.94c1.56-1.42,3.58-2.18,6.02-2.3c0.67-0.05,1.1-0.05,1.46-0.02V45.49z M267.7,53.31
		c0-1.44-0.77-2.69-2.33-2.69c-0.98,0-1.8,0.6-2.16,1.39c-0.1,0.19-0.14,0.48-0.14,0.91c0.07,1.66,0.86,3.14,2.52,3.14
		C266.88,56.07,267.7,54.9,267.7,53.31z"/>
</g>
</svg>
