<?xml version="1.0" encoding="utf-8"?>
<!-- Generator: Adobe Illustrator 26.3.1, SVG Export Plug-In . SVG Version: 6.00 Build 0)  -->
<svg version="1.1" id="Layer_1" xmlns="http://www.w3.org/2000/svg" xmlns:xlink="http://www.w3.org/1999/xlink" x="0px" y="0px"
	 viewBox="0 0 306 124.67" style="enable-background:new 0 0 306 124.67;" xml:space="preserve">
<style type="text/css">
	.st0{fill:#414042;}
	.st1{fill:#E6E6E6;}
	.st2{fill:#595959;}
	.st3{fill:#B3B3B3;}
	.st4{fill:#808080;}
	.st5{fill:none;stroke:#58595B;stroke-miterlimit:10;}
	.st6{fill:#58595B;}
</style>
<g>
	<g>
		<path class="st0" d="M224.78,89.53h36.13c0.44,0,0.88-0.09,1.28-0.27l18.52-8.26c1.14-0.51,1.87-1.63,1.87-2.88V42.37
			c0-1.74-1.41-3.15-3.15-3.15h-34.2c-0.39,0-0.77,0.07-1.13,0.21l-20.44,7.88c-1.22,0.47-2.02,1.64-2.02,2.94v36.13
			C221.63,88.12,223.04,89.53,224.78,89.53z"/>
		<path class="st1" d="M258.08,50.88h-30.46c-1.22,0-2.21,0.99-2.21,2.21v30.46c0,1.22,0.99,2.21,2.21,2.21h30.46
			c1.22,0,2.21-0.99,2.21-2.21V53.09C260.28,51.87,259.29,50.88,258.08,50.88z"/>
		<path class="st2" d="M279.43,74.97V44.89c0-0.82-0.39-1.3-1.03-1.3c-0.22,0-0.45,0.05-0.7,0.16l-13.3,5.66
			c-1.21,0.51-2.23,2.05-2.23,3.37v30.46c0,0.8,0.37,1.27,0.99,1.27h0c0.22,0,0.46-0.06,0.71-0.17l13.34-5.95
			C278.41,77.85,279.43,76.28,279.43,74.97z"/>
		<path class="st3" d="M258.08,48.99c1.47,0,3.85-0.49,5.2-1.06l13.07-5.56h-28.28c-1.47,0-3.88,0.45-5.25,0.98l-14.64,5.64H258.08z
			"/>
	</g>
	<g>
		<g>
			<path class="st0" d="M237.84,72.32c0.65,0.34,2.14,0.96,3.62,0.96c1.9,0,2.86-0.91,2.86-2.09c0-1.54-1.54-2.23-3.14-2.23h-1.49
				v-2.62h1.42c1.22-0.02,2.78-0.48,2.78-1.8c0-0.94-0.77-1.63-2.3-1.63c-1.27,0-2.62,0.55-3.26,0.94l-0.74-2.64
				c0.94-0.6,2.81-1.18,4.82-1.18c3.34,0,5.18,1.75,5.18,3.89c0,1.66-0.94,2.95-2.86,3.62v0.05c1.87,0.34,3.38,1.75,3.38,3.79
				c0,2.76-2.42,4.78-6.38,4.78c-2.02,0-3.72-0.53-4.63-1.1L237.84,72.32z"/>
		</g>
		<g>
			<path class="st0" d="M237.84,72.32c0.65,0.34,2.14,0.96,3.62,0.96c1.9,0,2.86-0.91,2.86-2.09c0-1.54-1.54-2.23-3.14-2.23h-1.49
				v-2.62h1.42c1.22-0.02,2.78-0.48,2.78-1.8c0-0.94-0.77-1.63-2.3-1.63c-1.27,0-2.62,0.55-3.26,0.94l-0.74-2.64
				c0.94-0.6,2.81-1.18,4.82-1.18c3.34,0,5.18,1.75,5.18,3.89c0,1.66-0.94,2.95-2.86,3.62v0.05c1.87,0.34,3.38,1.75,3.38,3.79
				c0,2.76-2.42,4.78-6.38,4.78c-2.02,0-3.72-0.53-4.63-1.1L237.84,72.32z"/>
		</g>
	</g>
</g>
<g>
	<g>
		<path class="st0" d="M90.4,51.99L60.34,19.63c-0.64-0.69-1.55-1.09-2.49-1.09h0c-0.95,0-1.85,0.39-2.49,1.09L25.28,51.99
			c-1.22,1.31-1.21,3.35,0.02,4.65l30.07,31.82c0.64,0.68,1.54,1.07,2.47,1.07s1.83-0.39,2.47-1.07l30.07-31.82
			C91.61,55.34,91.62,53.3,90.4,51.99z"/>
		<path class="st1" d="M60.39,54.85l12.25-5.29c0.56-0.24,0.95-0.66,1.11-1.18c0.15-0.52,0.05-1.08-0.28-1.59L58.97,24.88
			c-0.32-0.48-0.72-0.75-1.12-0.75c-0.4,0-0.8,0.27-1.12,0.75L42.23,46.79c-0.34,0.51-0.44,1.07-0.28,1.59
			c0.15,0.52,0.55,0.93,1.11,1.18l12.25,5.29c0.65,0.28,1.58,0.44,2.54,0.44C58.8,55.29,59.73,55.13,60.39,54.85z"/>
		<path class="st2" d="M86.48,55.42c-0.09-0.43-0.43-0.8-0.97-1.03l-6.59-2.88c-0.66-0.29-1.59-0.45-2.56-0.45
			c-0.95,0-1.87,0.16-2.52,0.44l-12.25,5.29c-1.3,0.56-2.4,2.23-2.4,3.65l0,23.32c0,0.62,0.15,0.85,0.19,0.88l0,0
			c0.1,0,0.36-0.11,0.74-0.51l25.86-27.37C86.4,56.32,86.57,55.85,86.48,55.42z"/>
		<path class="st4" d="M79.47,49.57l6.39,2.8L63.65,28.46l11.63,17.58C76.13,47.34,78.05,48.95,79.47,49.57z"/>
		<path class="st2" d="M54.08,56.78l-12.25-5.29c-0.65-0.28-1.57-0.44-2.52-0.44c-0.97,0-1.9,0.17-2.56,0.45l-6.59,2.88
			c-0.54,0.24-0.88,0.6-0.97,1.03c-0.09,0.43,0.09,0.9,0.49,1.33l25.86,27.37c0.38,0.4,0.64,0.51,0.74,0.51l0.01,0
			c0.03-0.02,0.18-0.25,0.18-0.88l0-23.32C56.48,59.01,55.38,57.34,54.08,56.78z"/>
		<path class="st4" d="M36.22,49.57c1.42-0.62,3.34-2.24,4.2-3.53l11.63-17.59L29.82,52.37L36.22,49.57z"/>
		<g>
			<g>
				<path class="st0" d="M58.04,49.78v-3.72h-6.91v-2.38l5.9-9.5h4.46v9.15h1.87v2.74h-1.87v3.72H58.04z M58.04,43.32v-3.46
					c0-0.94,0.05-1.9,0.12-2.9h-0.1c-0.5,1.01-0.91,1.92-1.44,2.9l-2.09,3.41v0.05H58.04z"/>
			</g>
			<g>
				<path class="st0" d="M58.04,49.78v-3.72h-6.91v-2.38l5.9-9.5h4.46v9.15h1.87v2.74h-1.87v3.72H58.04z M58.04,43.32v-3.46
					c0-0.94,0.05-1.9,0.12-2.9h-0.1c-0.5,1.01-0.91,1.92-1.44,2.9l-2.09,3.41v0.05H58.04z"/>
			</g>
		</g>
	</g>
	<g>
		<path class="st0" d="M169.09,51.99l-30.06-32.36c-0.64-0.69-1.55-1.09-2.49-1.09h0c-0.95,0-1.85,0.39-2.49,1.09l-30.07,32.36
			c-1.22,1.31-1.21,3.35,0.02,4.65l30.07,31.82c0.64,0.68,1.54,1.07,2.47,1.07s1.83-0.39,2.47-1.07l30.07-31.82
			C170.3,55.34,170.31,53.3,169.09,51.99z"/>
		<path class="st1" d="M139.07,54.85l12.25-5.29c0.56-0.24,0.95-0.66,1.11-1.18c0.15-0.52,0.05-1.08-0.28-1.59l-14.49-21.92
			c-0.32-0.48-0.72-0.75-1.12-0.75s-0.8,0.27-1.12,0.75l-14.49,21.92c-0.34,0.51-0.44,1.07-0.28,1.59c0.15,0.52,0.55,0.93,1.11,1.18
			l12.25,5.29c0.65,0.28,1.58,0.44,2.54,0.44S138.42,55.13,139.07,54.85z"/>
		<path class="st2" d="M165.17,55.42c-0.09-0.43-0.43-0.8-0.97-1.03l-6.59-2.88c-0.66-0.29-1.59-0.45-2.56-0.45
			c-0.95,0-1.87,0.16-2.52,0.44l-12.25,5.29c-1.3,0.56-2.4,2.23-2.4,3.65l0,23.32c0,0.62,0.15,0.85,0.19,0.88l0,0
			c0.1,0,0.36-0.11,0.74-0.51l25.86-27.37C165.09,56.32,165.26,55.85,165.17,55.42z"/>
		<path class="st4" d="M158.16,49.57l6.39,2.8l-22.22-23.91l11.63,17.58C154.82,47.34,156.74,48.95,158.16,49.57z"/>
		<path class="st2" d="M132.77,56.78l-12.25-5.29c-0.65-0.28-1.57-0.44-2.52-0.44c-0.97,0-1.9,0.17-2.56,0.45l-6.59,2.88
			c-0.54,0.24-0.88,0.6-0.97,1.03c-0.09,0.43,0.09,0.9,0.49,1.33l25.86,27.37c0.38,0.4,0.64,0.51,0.74,0.51l0.01,0
			c0.03-0.02,0.18-0.25,0.18-0.88l0-23.32C135.17,59.01,134.07,57.34,132.77,56.78z"/>
		<path class="st4" d="M114.9,49.57c1.42-0.62,3.34-2.24,4.2-3.53l11.63-17.59l-22.22,23.92L114.9,49.57z"/>
		<g>
			<g>
				<path class="st0" d="M130.78,46.45c0-1.87,1.08-3.17,2.78-3.91v-0.07c-1.51-0.77-2.26-2.04-2.26-3.41c0-2.64,2.38-4.39,5.5-4.39
					c3.65,0,5.16,2.11,5.16,4.01c0,1.34-0.72,2.66-2.26,3.43v0.07c1.51,0.58,2.86,1.87,2.86,3.89c0,2.83-2.38,4.73-6,4.73
					C132.6,50.79,130.78,48.56,130.78,46.45z M138.84,46.33c0-1.37-1.01-2.18-2.45-2.57c-1.2,0.34-1.9,1.2-1.9,2.33
					c-0.02,1.13,0.84,2.18,2.21,2.18C138,48.27,138.84,47.43,138.84,46.33z M134.74,38.94c0,1.06,0.96,1.73,2.21,2.11
					c0.84-0.24,1.58-1.01,1.58-1.99c0-0.96-0.55-1.92-1.9-1.92C135.39,37.13,134.74,37.95,134.74,38.94z"/>
			</g>
			<g>
				<path class="st0" d="M130.78,46.45c0-1.87,1.08-3.17,2.78-3.91v-0.07c-1.51-0.77-2.26-2.04-2.26-3.41c0-2.64,2.38-4.39,5.5-4.39
					c3.65,0,5.16,2.11,5.16,4.01c0,1.34-0.72,2.66-2.26,3.43v0.07c1.51,0.58,2.86,1.87,2.86,3.89c0,2.83-2.38,4.73-6,4.73
					C132.6,50.79,130.78,48.56,130.78,46.45z M138.84,46.33c0-1.37-1.01-2.18-2.45-2.57c-1.2,0.34-1.9,1.2-1.9,2.33
					c-0.02,1.13,0.84,2.18,2.21,2.18C138,48.27,138.84,47.43,138.84,46.33z M134.74,38.94c0,1.06,0.96,1.73,2.21,2.11
					c0.84-0.24,1.58-1.01,1.58-1.99c0-0.96-0.55-1.92-1.9-1.92C135.39,37.13,134.74,37.95,134.74,38.94z"/>
			</g>
		</g>
	</g>
</g>
<polyline class="st5" points="23.42,88.89 23.42,104.56 47.06,104.56 "/>
<polyline class="st5" points="170.89,88.89 170.89,104.56 148.25,104.56 "/>
<g>
	<path class="st6" d="M226.59,107.23v-0.22c0.26,0,0.39-0.11,0.39-0.3c0-0.06-0.04-0.19-0.06-0.25l-0.05-0.17
		c-0.28,0.1-0.69,0.16-1.08,0.16c-0.36,0-0.76-0.06-1.06-0.16l-0.07,0.19c-0.04,0.1-0.06,0.18-0.06,0.25c0,0.2,0.13,0.28,0.34,0.28
		v0.22h-2.59v-0.22c0.25,0,0.33-0.04,0.47-0.45l1.85-5.48c0.03-0.1,0.08-0.29,0.08-0.38c0-0.16-0.08-0.25-0.23-0.25v-0.22h2.65v0.22
		c-0.15,0-0.24,0.08-0.24,0.26c0,0.11,0.04,0.24,0.12,0.48l1.79,5.35c0.14,0.41,0.23,0.47,0.47,0.47v0.22H226.59z M225.79,102.19
		L225.79,102.19l-0.73,2.74c0.19,0.06,0.54,0.12,0.77,0.12c0.24,0,0.52-0.04,0.69-0.12L225.79,102.19z"/>
	<path class="st6" d="M234.73,107.27c0,0-0.15-0.05-0.36-0.05c-0.13,0-0.88,0.14-1.59,0.14c-1.91,0-3.45-1.31-3.45-3.64
		c0-2.43,1.75-3.64,3.45-3.64c0.63,0,1.43,0.12,1.59,0.12c0.21,0,0.36-0.06,0.36-0.06l0.39,2.06l-0.3,0.09
		c-0.2-0.64-1.06-0.75-1.63-0.75c-1.04,0-2,0.64-2,2.19c0,1.56,1.03,2.12,2.03,2.12c0.85,0,1.41-0.19,1.63-0.87l0.31,0.09
		L234.73,107.27z"/>
	<path class="st6" d="M241.66,102.07c-0.08-0.26-0.23-0.43-0.45-0.43h-1.55v4.78c0,0.42,0.12,0.59,0.39,0.59v0.22h-2.59v-0.22
		c0.27,0,0.4-0.17,0.4-0.59v-4.78h-1.52c-0.22,0-0.39,0.16-0.48,0.43l-0.28-0.09l0.37-1.81c0.07,0.03,0.24,0.06,0.51,0.06h4.69
		c0.15,0,0.33-0.03,0.41-0.06l0.37,1.81L241.66,102.07z"/>
	<path class="st6" d="M242.42,107.23v-0.22c0.26,0,0.4-0.15,0.4-0.57v-5.49c0-0.3-0.17-0.5-0.4-0.5v-0.22h2.6v0.22
		c-0.24,0-0.4,0.13-0.4,0.55v5.44c0,0.41,0.13,0.57,0.4,0.57v0.22H242.42z"/>
	<path class="st6" d="M248.99,107.46c-2.14,0-3.38-1.62-3.38-3.75c0-2.35,1.5-3.71,3.38-3.71c1.89,0,3.39,1.37,3.39,3.71
		C252.38,105.86,251.14,107.46,248.99,107.46z M248.98,101.49c-0.82,0-1.51,0.73-1.51,2.22c0,1.46,0.6,2.27,1.51,2.27
		c0.95,0,1.52-0.82,1.52-2.26C250.5,102.12,249.79,101.49,248.98,101.49z"/>
	<path class="st6" d="M259.23,101v6.23h-1.57c-0.01-0.19-0.12-0.45-0.23-0.63l-2.42-3.86h-0.04v3.7c0,0.41,0.12,0.57,0.39,0.57v0.22
		h-2.38v-0.22c0.27,0,0.4-0.15,0.4-0.57v-5.49c0-0.3-0.17-0.5-0.4-0.5v-0.22h2.55c0.03,0.18,0.1,0.35,0.28,0.64l1.78,2.87h0.04
		v-2.78c0-0.38-0.12-0.51-0.4-0.51v-0.22h2.39v0.22C259.35,100.45,259.23,100.58,259.23,101z"/>
	<path class="st6" d="M264.65,107.32c-0.87,0-1.83-0.04-2.27-0.09v-0.22c0.27,0,0.4-0.15,0.4-0.57v-5.49c0-0.3-0.17-0.49-0.4-0.5
		v-0.22c0.51-0.05,1.38-0.1,2.43-0.1c2.69,0,3.96,1.44,3.96,3.52C268.77,105.84,267.63,107.32,264.65,107.32z M265.14,101.58
		c-0.17,0-0.4,0.01-0.56,0.02v4.23c0.12,0.02,0.36,0.03,0.54,0.03c1.09,0,1.78-0.75,1.78-2.19
		C266.9,102.25,266.13,101.58,265.14,101.58z"/>
	<path class="st6" d="M269.38,107.23v-0.22c0.26,0,0.4-0.15,0.4-0.57v-5.49c0-0.3-0.17-0.5-0.4-0.5v-0.22h2.6v0.22
		c-0.24,0-0.4,0.13-0.4,0.55v5.44c0,0.41,0.13,0.57,0.4,0.57v0.22H269.38z"/>
	<path class="st6" d="M277.58,107.34c-0.17-0.06-0.47-0.11-0.66-0.11h-4.31v-0.22c0.27,0,0.4-0.18,0.4-0.52v-5.53
		c0-0.3-0.17-0.52-0.4-0.52v-0.21h4.38c0.15,0,0.48-0.05,0.57-0.07l0.35,1.78l-0.21,0.07c-0.17-0.3-0.29-0.37-0.63-0.37h-2.26v1.21
		h2.06c0.22,0,0.34-0.08,0.34-0.3h0.23v2.03h-0.23c0-0.21-0.12-0.29-0.34-0.29h-2.06v1.5h2.29c0.37,0,0.49-0.1,0.65-0.44l0.24,0.08
		L277.58,107.34z"/>
</g>
<g>
	<path class="st6" d="M61.19,107.05c0,0-0.15-0.05-0.36-0.05c-0.13,0-0.88,0.14-1.59,0.14c-1.91,0-3.45-1.31-3.45-3.64
		c0-2.43,1.75-3.64,3.45-3.64c0.63,0,1.43,0.12,1.59,0.12c0.21,0,0.36-0.06,0.36-0.06l0.39,2.06l-0.3,0.09
		c-0.2-0.64-1.06-0.75-1.63-0.75c-1.04,0-2,0.64-2,2.19c0,1.56,1.03,2.12,2.03,2.12c0.85,0,1.41-0.19,1.63-0.87l0.31,0.09
		L61.19,107.05z"/>
	<path class="st6" d="M66.36,107.01v-0.22c0.27,0,0.4-0.16,0.4-0.58v-2.09h-2.36v2.09c0,0.41,0.13,0.58,0.4,0.58v0.22h-2.6v-0.22
		c0.26,0,0.4-0.16,0.4-0.58v-5.52c0-0.3-0.18-0.46-0.4-0.46v-0.22h2.6v0.22c-0.27,0-0.4,0.15-0.4,0.57v1.82h2.36v-1.93
		c0-0.3-0.15-0.46-0.4-0.46v-0.22h2.59v0.22c-0.27,0-0.39,0.15-0.39,0.57v5.41c0,0.41,0.1,0.58,0.39,0.58v0.22H66.36z"/>
	<path class="st6" d="M73.59,107.01v-0.22c0.26,0,0.39-0.11,0.39-0.3c0-0.06-0.04-0.19-0.06-0.25l-0.05-0.17
		c-0.28,0.1-0.69,0.16-1.08,0.16c-0.36,0-0.76-0.06-1.06-0.16l-0.07,0.19c-0.04,0.1-0.06,0.18-0.06,0.25c0,0.2,0.13,0.28,0.34,0.28
		v0.22h-2.59v-0.22c0.25,0,0.33-0.04,0.47-0.45l1.85-5.48c0.03-0.1,0.08-0.29,0.08-0.38c0-0.16-0.08-0.25-0.23-0.25v-0.22h2.65v0.22
		c-0.15,0-0.24,0.08-0.24,0.26c0,0.11,0.04,0.24,0.12,0.48l1.79,5.35c0.14,0.41,0.23,0.47,0.47,0.47v0.22H73.59z M72.8,101.98
		L72.8,101.98l-0.73,2.74c0.19,0.06,0.54,0.12,0.77,0.12c0.24,0,0.52-0.04,0.69-0.12L72.8,101.98z"/>
	<path class="st6" d="M81.67,107.12c-0.16-0.06-0.39-0.11-0.57-0.11h-4.39v-0.22c0.26,0,0.4-0.15,0.4-0.55v-5.52
		c0-0.3-0.17-0.49-0.4-0.49v-0.22h2.6v0.22c-0.24,0-0.4,0.14-0.4,0.54v4.8h2.36c0.31,0,0.47-0.15,0.58-0.44l0.24,0.08L81.67,107.12z
		"/>
	<path class="st6" d="M87.51,107.12c-0.16-0.06-0.39-0.11-0.57-0.11h-4.39v-0.22c0.26,0,0.4-0.15,0.4-0.55v-5.52
		c0-0.3-0.17-0.49-0.4-0.49v-0.22h2.6v0.22c-0.24,0-0.4,0.14-0.4,0.54v4.8h2.36c0.31,0,0.47-0.15,0.58-0.44l0.24,0.08L87.51,107.12z
		"/>
	<path class="st6" d="M93.36,107.12c-0.17-0.06-0.47-0.11-0.66-0.11H88.4v-0.22c0.27,0,0.4-0.18,0.4-0.52v-5.53
		c0-0.3-0.17-0.52-0.4-0.52v-0.21h4.38c0.15,0,0.48-0.05,0.57-0.07l0.35,1.78l-0.21,0.07c-0.17-0.3-0.29-0.37-0.63-0.37H90.6v1.21
		h2.06c0.22,0,0.34-0.08,0.34-0.3h0.23v2.03h-0.23c0-0.21-0.12-0.29-0.34-0.29H90.6v1.5h2.29c0.37,0,0.49-0.1,0.65-0.44l0.24,0.08
		L93.36,107.12z"/>
	<path class="st6" d="M100.58,100.79v6.23h-1.57c-0.01-0.19-0.12-0.45-0.23-0.63l-2.42-3.86h-0.04v3.7c0,0.41,0.12,0.57,0.39,0.57
		v0.22h-2.38v-0.22c0.27,0,0.4-0.15,0.4-0.57v-5.49c0-0.3-0.17-0.5-0.4-0.5v-0.22h2.55c0.03,0.18,0.1,0.35,0.28,0.64l1.78,2.87h0.04
		v-2.78c0-0.38-0.12-0.51-0.4-0.51v-0.22h2.39v0.22C100.7,100.24,100.58,100.37,100.58,100.79z"/>
	<path class="st6" d="M107.64,104.23v1.86c0,0.15,0.05,0.31,0.12,0.41c-0.46,0.29-1.27,0.74-2.73,0.74c-2.1,0-3.46-1.57-3.46-3.78
		c0-2.31,1.87-3.6,3.3-3.6c0.67,0,1.23,0.11,1.39,0.11c0.21,0,0.37-0.08,0.37-0.08l0.55,2.12l-0.28,0.1
		c-0.05-0.15-0.21-0.41-0.37-0.52c-0.24-0.17-0.48-0.27-1.09-0.27c-1.04,0-2,0.68-2,2.12c0,1.42,0.74,2.32,1.7,2.32
		c0.32,0,0.6-0.07,0.74-0.13v-1.4c0-0.31-0.15-0.44-0.39-0.44v-0.22h2.54v0.22C107.79,103.79,107.64,103.94,107.64,104.23z"/>
	<path class="st6" d="M113.5,107.12c-0.17-0.06-0.47-0.11-0.66-0.11h-4.31v-0.22c0.27,0,0.4-0.18,0.4-0.52v-5.53
		c0-0.3-0.17-0.52-0.4-0.52v-0.21h4.38c0.15,0,0.48-0.05,0.57-0.07l0.35,1.78l-0.21,0.07c-0.17-0.3-0.29-0.37-0.63-0.37h-2.26v1.21
		h2.06c0.22,0,0.34-0.08,0.34-0.3h0.23v2.03h-0.23c0-0.21-0.12-0.29-0.34-0.29h-2.06v1.5h2.29c0.37,0,0.49-0.1,0.65-0.44l0.24,0.08
		L113.5,107.12z"/>
	<path class="st6" d="M118.87,107.1c-0.87,0-1.83-0.04-2.27-0.09v-0.22c0.27,0,0.4-0.15,0.4-0.57v-5.49c0-0.3-0.17-0.49-0.4-0.5
		v-0.22c0.51-0.05,1.38-0.1,2.43-0.1c2.69,0,3.96,1.44,3.96,3.52C122.98,105.62,121.84,107.1,118.87,107.1z M119.35,101.37
		c-0.17,0-0.4,0.01-0.56,0.02v4.23c0.12,0.02,0.36,0.03,0.54,0.03c1.09,0,1.78-0.75,1.78-2.19
		C121.11,102.04,120.34,101.37,119.35,101.37z"/>
	<path class="st6" d="M123.59,107.01v-0.22c0.26,0,0.4-0.15,0.4-0.57v-5.49c0-0.3-0.17-0.5-0.4-0.5v-0.22h2.6v0.22
		c-0.24,0-0.4,0.13-0.4,0.55v5.44c0,0.41,0.13,0.57,0.4,0.57v0.22H123.59z"/>
	<path class="st6" d="M132.18,107.05c0,0-0.15-0.05-0.36-0.05c-0.13,0-0.88,0.14-1.59,0.14c-1.91,0-3.45-1.31-3.45-3.64
		c0-2.43,1.75-3.64,3.45-3.64c0.63,0,1.43,0.12,1.59,0.12c0.21,0,0.36-0.06,0.36-0.06l0.39,2.06l-0.3,0.09
		c-0.2-0.64-1.06-0.75-1.63-0.75c-1.04,0-2,0.64-2,2.19c0,1.56,1.03,2.12,2.03,2.12c0.85,0,1.41-0.19,1.63-0.87l0.31,0.09
		L132.18,107.05z"/>
	<path class="st6" d="M138.16,107.12c-0.17-0.06-0.47-0.11-0.66-0.11h-4.31v-0.22c0.27,0,0.4-0.18,0.4-0.52v-5.53
		c0-0.3-0.17-0.52-0.4-0.52v-0.21h4.38c0.15,0,0.48-0.05,0.57-0.07l0.35,1.78l-0.21,0.07c-0.17-0.3-0.29-0.37-0.63-0.37h-2.26v1.21
		h2.06c0.22,0,0.34-0.08,0.34-0.3h0.23v2.03h-0.23c0-0.21-0.12-0.29-0.34-0.29h-2.06v1.5h2.29c0.37,0,0.49-0.1,0.65-0.44l0.24,0.08
		L138.16,107.12z"/>
</g>
</svg>
