<?xml version="1.0" encoding="utf-8"?>
<!-- Generator: Adobe Illustrator 26.3.1, SVG Export Plug-In . SVG Version: 6.00 Build 0)  -->
<svg version="1.1" id="Layer_1" xmlns="http://www.w3.org/2000/svg" xmlns:xlink="http://www.w3.org/1999/xlink" x="0px" y="0px"
	 viewBox="0 0 306 80.33" style="enable-background:new 0 0 306 80.33;" xml:space="preserve">
<style type="text/css">
	.st0{fill:#414042;}
	.st1{fill:#E6E6E6;}
	.st2{fill:#595959;}
	.st3{fill:#808080;}
</style>
<g>
	<g>
		<path class="st0" d="M135.87,38.16L105.81,5.8c-0.64-0.69-1.55-1.09-2.49-1.09h0c-0.95,0-1.85,0.39-2.49,1.09L70.75,38.16
			c-1.22,1.31-1.21,3.35,0.02,4.65l30.07,31.82c0.64,0.68,1.54,1.07,2.47,1.07s1.83-0.39,2.47-1.07l30.07-31.82
			C137.08,41.51,137.09,39.47,135.87,38.16z"/>
		<path class="st1" d="M105.85,41.01l12.25-5.29c0.56-0.24,0.95-0.66,1.11-1.18c0.15-0.52,0.05-1.08-0.28-1.59l-14.49-21.92
			c-0.32-0.48-0.72-0.75-1.12-0.75c-0.4,0-0.8,0.27-1.12,0.75L87.7,32.96c-0.34,0.51-0.44,1.07-0.28,1.59
			c0.15,0.52,0.55,0.93,1.11,1.18l12.25,5.29c0.65,0.28,1.58,0.44,2.54,0.44C104.27,41.46,105.2,41.3,105.85,41.01z"/>
		<path class="st2" d="M131.95,41.58c-0.09-0.43-0.43-0.8-0.97-1.03l-6.59-2.88c-0.66-0.29-1.59-0.45-2.56-0.45
			c-0.95,0-1.87,0.16-2.52,0.44l-12.25,5.29c-1.3,0.56-2.4,2.23-2.4,3.65l0,23.32c0,0.62,0.15,0.85,0.19,0.88l0,0
			c0.1,0,0.36-0.11,0.74-0.51l25.86-27.37C131.86,42.49,132.04,42.01,131.95,41.58z"/>
		<path class="st3" d="M124.94,35.74l6.39,2.8l-22.22-23.91l11.63,17.58C121.6,33.5,123.52,35.12,124.94,35.74z"/>
		<path class="st2" d="M99.55,42.94L87.3,37.66c-0.65-0.28-1.57-0.44-2.52-0.44c-0.97,0-1.9,0.17-2.56,0.45l-6.59,2.88
			c-0.54,0.24-0.88,0.6-0.97,1.03c-0.09,0.43,0.09,0.9,0.49,1.33l25.86,27.37c0.38,0.4,0.64,0.51,0.74,0.51l0.01,0
			c0.03-0.02,0.18-0.25,0.18-0.88l0-23.32C101.95,45.18,100.85,43.5,99.55,42.94z"/>
		<path class="st3" d="M81.68,35.74c1.42-0.62,3.34-2.24,4.2-3.53l11.63-17.59L75.29,38.54L81.68,35.74z"/>
		<g>
			<g>
				<path class="st0" d="M107.47,23.34h-6.05l-0.34,2.4c0.34-0.05,0.62-0.05,1.01-0.05c1.49,0,3,0.34,4.1,1.13
					c1.18,0.79,1.9,2.09,1.9,3.91c0,2.9-2.5,5.47-6.7,5.47c-1.9,0-3.48-0.43-4.34-0.89l0.65-2.74c0.7,0.34,2.11,0.77,3.53,0.77
					c1.51,0,3.12-0.72,3.12-2.38c0-1.61-1.27-2.59-4.39-2.59c-0.86,0-1.46,0.05-2.11,0.14l1.03-8.19h8.59V23.34z"/>
			</g>
			<g>
				<path class="st0" d="M107.47,23.34h-6.05l-0.34,2.4c0.34-0.05,0.62-0.05,1.01-0.05c1.49,0,3,0.34,4.1,1.13
					c1.18,0.79,1.9,2.09,1.9,3.91c0,2.9-2.5,5.47-6.7,5.47c-1.9,0-3.48-0.43-4.34-0.89l0.65-2.74c0.7,0.34,2.11,0.77,3.53,0.77
					c1.51,0,3.12-0.72,3.12-2.38c0-1.61-1.27-2.59-4.39-2.59c-0.86,0-1.46,0.05-2.11,0.14l1.03-8.19h8.59V23.34z"/>
			</g>
		</g>
	</g>
	<g>
		<path class="st0" d="M235.25,38.16L205.19,5.8c-0.64-0.69-1.55-1.09-2.49-1.09h0c-0.95,0-1.85,0.39-2.49,1.09l-30.07,32.36
			c-1.22,1.31-1.21,3.35,0.02,4.65l30.07,31.82c0.64,0.68,1.54,1.07,2.47,1.07s1.83-0.39,2.47-1.07l30.07-31.82
			C236.46,41.51,236.47,39.47,235.25,38.16z"/>
		<path class="st1" d="M205.23,41.01l12.25-5.29c0.56-0.24,0.95-0.66,1.11-1.18c0.15-0.52,0.05-1.08-0.28-1.59l-14.49-21.92
			c-0.32-0.48-0.72-0.75-1.12-0.75c-0.4,0-0.8,0.27-1.12,0.75l-14.49,21.92c-0.34,0.51-0.44,1.07-0.28,1.59
			c0.15,0.52,0.55,0.93,1.11,1.18l12.25,5.29c0.65,0.28,1.58,0.44,2.54,0.44S204.58,41.3,205.23,41.01z"/>
		<path class="st2" d="M231.33,41.58c-0.09-0.43-0.43-0.8-0.97-1.03l-6.59-2.88c-0.66-0.29-1.59-0.45-2.56-0.45
			c-0.95,0-1.87,0.16-2.52,0.44l-12.25,5.29c-1.3,0.56-2.4,2.23-2.4,3.65l0,23.32c0,0.62,0.15,0.85,0.19,0.88l0,0
			c0.1,0,0.36-0.11,0.74-0.51l25.86-27.37C231.24,42.49,231.42,42.01,231.33,41.58z"/>
		<path class="st3" d="M224.32,35.74l6.39,2.8L208.5,14.63l11.63,17.58C220.98,33.5,222.9,35.12,224.32,35.74z"/>
		<path class="st2" d="M198.93,42.94l-12.25-5.29c-0.65-0.28-1.57-0.44-2.52-0.44c-0.97,0-1.9,0.17-2.56,0.45l-6.59,2.88
			c-0.54,0.24-0.88,0.6-0.97,1.03c-0.09,0.43,0.09,0.9,0.49,1.33l25.86,27.37c0.38,0.4,0.64,0.51,0.74,0.51l0.01,0
			c0.03-0.02,0.18-0.25,0.18-0.88l0-23.32C201.33,45.18,200.23,43.5,198.93,42.94z"/>
		<path class="st3" d="M181.06,35.74c1.42-0.62,3.34-2.24,4.2-3.53l11.63-17.59l-22.22,23.92L181.06,35.74z"/>
		<g>
			<g>
				<path class="st0" d="M207.59,24.09h-6.05l-0.34,2.4c0.34-0.05,0.62-0.05,1.01-0.05c1.49,0,3,0.34,4.1,1.13
					c1.18,0.79,1.9,2.09,1.9,3.91c0,2.9-2.5,5.47-6.7,5.47c-1.9,0-3.48-0.43-4.34-0.89l0.65-2.74c0.7,0.34,2.11,0.77,3.53,0.77
					c1.51,0,3.12-0.72,3.12-2.38c0-1.61-1.27-2.59-4.39-2.59c-0.86,0-1.46,0.05-2.11,0.14l1.03-8.19h8.59V24.09z"/>
			</g>
			<g>
				<path class="st0" d="M207.59,24.09h-6.05l-0.34,2.4c0.34-0.05,0.62-0.05,1.01-0.05c1.49,0,3,0.34,4.1,1.13
					c1.18,0.79,1.9,2.09,1.9,3.91c0,2.9-2.5,5.47-6.7,5.47c-1.9,0-3.48-0.43-4.34-0.89l0.65-2.74c0.7,0.34,2.11,0.77,3.53,0.77
					c1.51,0,3.12-0.72,3.12-2.38c0-1.61-1.27-2.59-4.39-2.59c-0.86,0-1.46,0.05-2.11,0.14l1.03-8.19h8.59V24.09z"/>
			</g>
		</g>
	</g>
	<g>
		<path class="st0" d="M145.67,37.46v-2.98h16.51v2.98H145.67z M145.67,44.08V41.1h16.51v2.98H145.67z"/>
	</g>
</g>
</svg>
