<?xml version="1.0" encoding="utf-8"?>
<!-- Generator: Adobe Illustrator 26.3.1, SVG Export Plug-In . SVG Version: 6.00 Build 0)  -->
<svg version="1.1" id="Layer_1" xmlns="http://www.w3.org/2000/svg" xmlns:xlink="http://www.w3.org/1999/xlink" x="0px" y="0px"
	 viewBox="0 0 129.93 70.23" style="enable-background:new 0 0 129.93 70.23;" xml:space="preserve">
<style type="text/css">
	.st0{fill:#414042;}
	.st1{fill:#E6E6E6;}
	.st2{fill:#ACACAC;}
	.st3{fill:#E2E2E2;}
	.st4{fill:#A6A6A6;}
	.st5{fill:#4D4D4D;}
</style>
<g>
	<path class="st0" d="M62.54,33.23L35.48,4.11c-0.58-0.62-1.39-0.98-2.24-0.98h0c-0.85,0-1.66,0.35-2.24,0.98L3.93,33.23
		c-1.1,1.18-1.09,3.01,0.02,4.19l27.06,28.64c0.58,0.61,1.38,0.96,2.23,0.96s1.65-0.35,2.23-0.96l27.06-28.64
		C63.63,36.25,63.64,34.42,62.54,33.23z"/>
	<path class="st1" d="M35.52,35.8l11.02-4.76c0.5-0.22,0.86-0.59,1-1.06c0.14-0.47,0.05-0.97-0.25-1.43L34.25,8.83
		c-0.29-0.43-0.65-0.67-1.01-0.67c-0.36,0-0.72,0.24-1.01,0.67L19.18,28.56c-0.3,0.46-0.39,0.97-0.25,1.43
		c0.14,0.47,0.49,0.84,1,1.06l11.02,4.76c0.59,0.25,1.42,0.4,2.29,0.4S34.93,36.06,35.52,35.8z"/>
	<path class="st2" d="M59.01,36.32c-0.08-0.39-0.39-0.72-0.87-0.93l-5.93-2.59c-0.59-0.26-1.43-0.41-2.3-0.41
		c-0.86,0-1.68,0.14-2.26,0.4l-11.02,4.76c-1.17,0.51-2.16,2.01-2.16,3.29l0,20.99c0,0.56,0.14,0.77,0.17,0.79l0,0
		c0.09,0,0.32-0.1,0.66-0.46l23.28-24.64C58.93,37.13,59.09,36.7,59.01,36.32z"/>
	<path class="st3" d="M52.7,31.06l5.75,2.52L38.46,12.06l10.46,15.83C49.69,29.04,51.42,30.5,52.7,31.06z"/>
	<path class="st2" d="M29.85,37.54l-11.02-4.76c-0.58-0.25-1.41-0.4-2.27-0.4c-0.87,0-1.71,0.15-2.3,0.41l-5.93,2.59
		c-0.48,0.21-0.79,0.54-0.87,0.93c-0.08,0.39,0.08,0.81,0.44,1.2l23.28,24.64c0.34,0.36,0.58,0.46,0.66,0.46l0.01,0
		c0.03-0.02,0.17-0.23,0.17-0.79l0-20.99C32.01,39.55,31.02,38.05,29.85,37.54z"/>
	<path class="st3" d="M13.77,31.06c1.28-0.56,3.01-2.02,3.78-3.18l10.47-15.83l-20,21.52L13.77,31.06z"/>
	<g>
		<g>
			<path class="st0" d="M29.31,27.7c0.44,0.23,1.44,0.65,2.45,0.65c1.28,0,1.93-0.62,1.93-1.41c0-1.04-1.04-1.51-2.12-1.51h-1v-1.77
				h0.96c0.83-0.02,1.88-0.32,1.88-1.22c0-0.63-0.52-1.1-1.56-1.1c-0.86,0-1.77,0.37-2.2,0.63l-0.5-1.78
				c0.63-0.4,1.9-0.79,3.26-0.79c2.25,0,3.5,1.18,3.5,2.62c0,1.12-0.63,1.99-1.93,2.45v0.03c1.26,0.23,2.28,1.18,2.28,2.56
				c0,1.86-1.64,3.22-4.31,3.22c-1.36,0-2.51-0.36-3.13-0.75L29.31,27.7z"/>
		</g>
		<g>
			<path class="st0" d="M29.31,27.7c0.44,0.23,1.44,0.65,2.45,0.65c1.28,0,1.93-0.62,1.93-1.41c0-1.04-1.04-1.51-2.12-1.51h-1v-1.77
				h0.96c0.83-0.02,1.88-0.32,1.88-1.22c0-0.63-0.52-1.1-1.56-1.1c-0.86,0-1.77,0.37-2.2,0.63l-0.5-1.78
				c0.63-0.4,1.9-0.79,3.26-0.79c2.25,0,3.5,1.18,3.5,2.62c0,1.12-0.63,1.99-1.93,2.45v0.03c1.26,0.23,2.28,1.18,2.28,2.56
				c0,1.86-1.64,3.22-4.31,3.22c-1.36,0-2.51-0.36-3.13-0.75L29.31,27.7z"/>
		</g>
	</g>
	<path class="st0" d="M126.16,33.23L99.1,4.11c-0.58-0.62-1.39-0.98-2.24-0.98h0c-0.85,0-1.66,0.35-2.24,0.98L67.55,33.23
		c-1.1,1.18-1.09,3.01,0.02,4.19l27.06,28.64c0.58,0.61,1.38,0.96,2.23,0.96s1.65-0.35,2.23-0.96l27.06-28.64
		C127.25,36.25,127.26,34.42,126.16,33.23z"/>
	<path class="st4" d="M99.14,35.8l11.02-4.76c0.5-0.22,0.86-0.59,1-1.06c0.14-0.47,0.05-0.97-0.25-1.43L97.87,8.83
		c-0.29-0.43-0.65-0.67-1.01-0.67c-0.36,0-0.72,0.24-1.01,0.67L82.8,28.56c-0.3,0.46-0.39,0.97-0.25,1.43
		c0.14,0.47,0.49,0.84,1,1.06l11.02,4.76c0.59,0.25,1.42,0.4,2.29,0.4C97.72,36.2,98.55,36.06,99.14,35.8z"/>
	<path class="st5" d="M122.63,36.32c-0.08-0.39-0.39-0.72-0.87-0.93l-5.93-2.59c-0.59-0.26-1.43-0.41-2.3-0.41
		c-0.86,0-1.68,0.14-2.26,0.4l-11.02,4.76c-1.17,0.51-2.16,2.01-2.16,3.29l0,20.99c0,0.56,0.14,0.77,0.17,0.79l0,0
		c0.09,0,0.32-0.1,0.66-0.46l23.28-24.64C122.55,37.13,122.71,36.7,122.63,36.32z"/>
	<path class="st4" d="M116.32,31.06l5.75,2.52l-19.99-21.52l10.46,15.83C113.31,29.04,115.04,30.5,116.32,31.06z"/>
	<path class="st5" d="M93.47,37.54l-11.02-4.76c-0.58-0.25-1.41-0.4-2.27-0.4c-0.87,0-1.71,0.15-2.3,0.41l-5.93,2.59
		c-0.48,0.21-0.79,0.54-0.87,0.93c-0.08,0.39,0.08,0.81,0.44,1.2l23.28,24.64c0.34,0.36,0.58,0.46,0.66,0.46l0.01,0
		c0.03-0.02,0.17-0.23,0.17-0.79l0-20.99C95.63,39.55,94.64,38.05,93.47,37.54z"/>
	<path class="st4" d="M77.39,31.06c1.28-0.56,3.01-2.02,3.78-3.18l10.47-15.83l-20,21.52L77.39,31.06z"/>
	<g>
		<g>
			<path class="st0" d="M99.89,21.33c-0.28-0.02-0.57,0-0.96,0.03c-2.19,0.18-3.16,1.3-3.44,2.53h0.05
				c0.52-0.53,1.25-0.84,2.24-0.84c1.77,0,3.26,1.25,3.26,3.44c0,2.09-1.6,3.81-3.89,3.81c-2.8,0-4.18-2.09-4.18-4.6
				c0-1.98,0.73-3.63,1.86-4.68c1.05-0.96,2.41-1.47,4.07-1.56c0.45-0.03,0.75-0.03,0.99-0.02V21.33z M98.54,26.62
				c0-0.97-0.52-1.82-1.57-1.82c-0.66,0-1.22,0.41-1.46,0.94c-0.06,0.13-0.1,0.32-0.1,0.62c0.05,1.12,0.58,2.12,1.7,2.12
				C97.99,28.48,98.54,27.69,98.54,26.62z"/>
		</g>
		<g>
			<path class="st0" d="M99.89,21.33c-0.28-0.02-0.57,0-0.96,0.03c-2.19,0.18-3.16,1.3-3.44,2.53h0.05
				c0.52-0.53,1.25-0.84,2.24-0.84c1.77,0,3.26,1.25,3.26,3.44c0,2.09-1.6,3.81-3.89,3.81c-2.8,0-4.18-2.09-4.18-4.6
				c0-1.98,0.73-3.63,1.86-4.68c1.05-0.96,2.41-1.47,4.07-1.56c0.45-0.03,0.75-0.03,0.99-0.02V21.33z M98.54,26.62
				c0-0.97-0.52-1.82-1.57-1.82c-0.66,0-1.22,0.41-1.46,0.94c-0.06,0.13-0.1,0.32-0.1,0.62c0.05,1.12,0.58,2.12,1.7,2.12
				C97.99,28.48,98.54,27.69,98.54,26.62z"/>
		</g>
	</g>
</g>
</svg>
