<?xml version="1.0" encoding="utf-8"?>
<!-- Generator: Adobe Illustrator 26.3.1, SVG Export Plug-In . SVG Version: 6.00 Build 0)  -->
<svg version="1.1" id="Layer_2" xmlns="http://www.w3.org/2000/svg" xmlns:xlink="http://www.w3.org/1999/xlink" x="0px" y="0px"
	 viewBox="0 0 129.93 70.23" style="enable-background:new 0 0 129.93 70.23;" xml:space="preserve">
<style type="text/css">
	.st0{fill:#414042;}
	.st1{fill:#E6E6E6;}
	.st2{fill:#595959;}
	.st3{fill:#808080;}
</style>
<g>
	<path class="st0" d="M62.54,33.27L35.48,4.15c-0.58-0.62-1.39-0.98-2.24-0.98h0c-0.85,0-1.66,0.35-2.24,0.98L3.93,33.27
		c-1.1,1.18-1.09,3.01,0.02,4.19L31.01,66.1c0.58,0.61,1.38,0.96,2.23,0.96c0.84,0,1.65-0.35,2.23-0.96l27.06-28.64
		C63.63,36.29,63.64,34.46,62.54,33.27z"/>
	<path class="st1" d="M35.53,35.84l11.02-4.76c0.5-0.22,0.86-0.59,1-1.06c0.14-0.47,0.05-0.97-0.25-1.43L34.25,8.87
		C33.96,8.43,33.6,8.2,33.24,8.2c-0.36,0-0.72,0.24-1.01,0.67L19.19,28.59c-0.3,0.46-0.39,0.97-0.25,1.43
		c0.14,0.47,0.49,0.84,1,1.06l11.02,4.76c0.59,0.25,1.42,0.4,2.29,0.4S34.94,36.1,35.53,35.84z"/>
	<path class="st2" d="M59.01,36.36c-0.08-0.39-0.39-0.72-0.87-0.93l-5.93-2.59c-0.59-0.26-1.43-0.41-2.3-0.41
		c-0.86,0-1.68,0.14-2.26,0.4l-11.02,4.76c-1.17,0.51-2.16,2.01-2.16,3.29l0,20.99c0,0.56,0.14,0.77,0.17,0.79l0,0
		c0.09,0,0.32-0.1,0.66-0.46l23.28-24.64C58.94,37.17,59.09,36.74,59.01,36.36z"/>
	<path class="st3" d="M52.71,31.1l5.75,2.52L38.46,12.09l10.46,15.83C49.7,29.08,51.43,30.54,52.71,31.1z"/>
	<path class="st2" d="M29.85,37.58l-11.02-4.76c-0.58-0.25-1.41-0.4-2.27-0.4c-0.87,0-1.71,0.15-2.3,0.41l-5.93,2.59
		c-0.48,0.21-0.79,0.54-0.87,0.93c-0.08,0.39,0.08,0.81,0.44,1.2l23.28,24.64c0.34,0.36,0.58,0.46,0.66,0.46l0.01,0
		c0.03-0.02,0.17-0.23,0.17-0.79l0-20.99C32.01,39.59,31.03,38.08,29.85,37.58z"/>
	<path class="st3" d="M13.77,31.1c1.28-0.56,3.01-2.02,3.78-3.18l10.47-15.83l-20,21.52L13.77,31.1z"/>
	<g>
		<g>
			<path class="st0" d="M24.22,27.4c0-1.26,0.73-2.14,1.88-2.64v-0.05c-1.02-0.52-1.52-1.38-1.52-2.3c0-1.78,1.6-2.96,3.71-2.96
				c2.46,0,3.48,1.43,3.48,2.71c0,0.91-0.49,1.8-1.52,2.32v0.05c1.02,0.39,1.93,1.26,1.93,2.63c0,1.91-1.6,3.19-4.05,3.19
				C25.45,30.33,24.22,28.83,24.22,27.4z M29.66,27.32c0-0.92-0.68-1.47-1.65-1.73c-0.81,0.23-1.28,0.81-1.28,1.57
				c-0.02,0.76,0.57,1.47,1.49,1.47C29.09,28.63,29.66,28.07,29.66,27.32z M26.89,22.33c0,0.71,0.65,1.17,1.49,1.43
				c0.57-0.16,1.07-0.68,1.07-1.34c0-0.65-0.37-1.3-1.28-1.3C27.33,21.11,26.89,21.67,26.89,22.33z"/>
			<path class="st0" d="M41.15,24.84c0,3.26-1.31,5.49-4,5.49c-2.72,0-3.92-2.45-3.94-5.43c0-3.05,1.3-5.46,4.02-5.46
				C40.05,19.45,41.15,21.96,41.15,24.84z M35.69,24.91c-0.02,2.41,0.57,3.56,1.52,3.56s1.47-1.2,1.47-3.6
				c0-2.33-0.5-3.56-1.49-3.56C36.29,21.31,35.67,22.46,35.69,24.91z"/>
		</g>
		<g>
			<path class="st0" d="M24.22,27.4c0-1.26,0.73-2.14,1.88-2.64v-0.05c-1.02-0.52-1.52-1.38-1.52-2.3c0-1.78,1.6-2.96,3.71-2.96
				c2.46,0,3.48,1.43,3.48,2.71c0,0.91-0.49,1.8-1.52,2.32v0.05c1.02,0.39,1.93,1.26,1.93,2.63c0,1.91-1.6,3.19-4.05,3.19
				C25.45,30.33,24.22,28.83,24.22,27.4z M29.66,27.32c0-0.92-0.68-1.47-1.65-1.73c-0.81,0.23-1.28,0.81-1.28,1.57
				c-0.02,0.76,0.57,1.47,1.49,1.47C29.09,28.63,29.66,28.07,29.66,27.32z M26.89,22.33c0,0.71,0.65,1.17,1.49,1.43
				c0.57-0.16,1.07-0.68,1.07-1.34c0-0.65-0.37-1.3-1.28-1.3C27.33,21.11,26.89,21.67,26.89,22.33z"/>
			<path class="st0" d="M41.15,24.84c0,3.26-1.31,5.49-4,5.49c-2.72,0-3.92-2.45-3.94-5.43c0-3.05,1.3-5.46,4.02-5.46
				C40.05,19.45,41.15,21.96,41.15,24.84z M35.69,24.91c-0.02,2.41,0.57,3.56,1.52,3.56s1.47-1.2,1.47-3.6
				c0-2.33-0.5-3.56-1.49-3.56C36.29,21.31,35.67,22.46,35.69,24.91z"/>
		</g>
	</g>
	<path class="st0" d="M126.16,33.27L99.1,4.15c-0.58-0.62-1.39-0.98-2.24-0.98h0c-0.85,0-1.66,0.35-2.24,0.98L67.55,33.27
		c-1.1,1.18-1.09,3.01,0.02,4.19L94.63,66.1c0.58,0.61,1.38,0.96,2.23,0.96c0.84,0,1.65-0.35,2.23-0.96l27.06-28.64
		C127.25,36.29,127.26,34.46,126.16,33.27z"/>
	<path class="st1" d="M99.15,35.84l11.02-4.76c0.5-0.22,0.86-0.59,1-1.06c0.14-0.47,0.05-0.97-0.25-1.43L97.87,8.87
		c-0.29-0.43-0.65-0.67-1.01-0.67c-0.36,0-0.72,0.24-1.01,0.67L82.81,28.59c-0.3,0.46-0.39,0.97-0.25,1.43
		c0.14,0.47,0.49,0.84,1,1.06l11.02,4.76c0.59,0.25,1.42,0.4,2.29,0.4C97.72,36.24,98.56,36.1,99.15,35.84z"/>
	<path class="st2" d="M122.63,36.36c-0.08-0.39-0.39-0.72-0.87-0.93l-5.93-2.59c-0.59-0.26-1.43-0.41-2.3-0.41
		c-0.86,0-1.68,0.14-2.26,0.4l-11.02,4.76c-1.17,0.51-2.16,2.01-2.16,3.29l0,20.99c0,0.56,0.14,0.77,0.17,0.79l0,0
		c0.09,0,0.32-0.1,0.66-0.46l23.28-24.64C122.56,37.17,122.71,36.74,122.63,36.36z"/>
	<path class="st3" d="M116.33,31.1l5.75,2.52l-19.99-21.52l10.46,15.83C113.32,29.08,115.05,30.54,116.33,31.1z"/>
	<path class="st2" d="M93.47,37.58l-11.02-4.76c-0.58-0.25-1.41-0.4-2.27-0.4c-0.87,0-1.71,0.15-2.3,0.41l-5.93,2.59
		c-0.48,0.21-0.79,0.54-0.87,0.93c-0.08,0.39,0.08,0.81,0.44,1.2L94.8,62.19c0.34,0.36,0.58,0.46,0.66,0.46l0.01,0
		c0.03-0.02,0.17-0.23,0.17-0.79l0-20.99C95.63,39.59,94.64,38.08,93.47,37.58z"/>
	<path class="st3" d="M77.39,31.1c1.28-0.56,3.01-2.02,3.78-3.18l10.47-15.83l-20,21.52L77.39,31.1z"/>
	<g>
		<g>
			<path class="st0" d="M93.61,27.74c0.44,0.23,1.44,0.65,2.45,0.65c1.28,0,1.93-0.62,1.93-1.41c0-1.04-1.04-1.51-2.12-1.51h-1
				v-1.77h0.96c0.83-0.02,1.88-0.32,1.88-1.22c0-0.63-0.52-1.1-1.56-1.1c-0.86,0-1.77,0.37-2.2,0.63l-0.5-1.78
				c0.63-0.41,1.9-0.79,3.26-0.79c2.25,0,3.5,1.18,3.5,2.62c0,1.12-0.63,1.99-1.93,2.45v0.03c1.26,0.23,2.28,1.18,2.28,2.56
				c0,1.86-1.64,3.23-4.31,3.23c-1.36,0-2.51-0.36-3.13-0.75L93.61,27.74z"/>
		</g>
		<g>
			<path class="st0" d="M93.61,27.74c0.44,0.23,1.44,0.65,2.45,0.65c1.28,0,1.93-0.62,1.93-1.41c0-1.04-1.04-1.51-2.12-1.51h-1
				v-1.77h0.96c0.83-0.02,1.88-0.32,1.88-1.22c0-0.63-0.52-1.1-1.56-1.1c-0.86,0-1.77,0.37-2.2,0.63l-0.5-1.78
				c0.63-0.41,1.9-0.79,3.26-0.79c2.25,0,3.5,1.18,3.5,2.62c0,1.12-0.63,1.99-1.93,2.45v0.03c1.26,0.23,2.28,1.18,2.28,2.56
				c0,1.86-1.64,3.23-4.31,3.23c-1.36,0-2.51-0.36-3.13-0.75L93.61,27.74z"/>
		</g>
	</g>
</g>
</svg>
