<?xml version="1.0" encoding="utf-8"?>
<!-- Generator: Adobe Illustrator 26.3.1, SVG Export Plug-In . SVG Version: 6.00 Build 0)  -->
<svg version="1.1" xmlns="http://www.w3.org/2000/svg" xmlns:xlink="http://www.w3.org/1999/xlink" x="0px" y="0px"
	 viewBox="0 0 306 258.42" style="enable-background:new 0 0 306 258.42;" xml:space="preserve">
<style type="text/css">
	.st0{fill:none;stroke:#4D4D4F;stroke-width:1.8;stroke-miterlimit:10;}
	.st1{fill:#282829;}
	.st2{fill:none;stroke:#414042;stroke-width:1.6729;stroke-miterlimit:10;}
	.st3{fill:#414042;}
	.st4{fill:#58595B;}
	.st5{fill:#E6E6E6;}
	.st6{fill:#595959;}
	.st7{fill:#808080;}
	.st8{fill:#FFFFFF;stroke:#414042;stroke-width:2;stroke-miterlimit:10;}
</style>
<g id="Layer_2">
</g>
<g id="Layer_1">
	<g>
		<rect x="40.27" y="31.99" class="st0" width="24.35" height="24.35"/>
		<rect x="11.34" y="31.99" class="st0" width="24.35" height="24.35"/>
		<rect x="69.21" y="31.99" class="st0" width="24.35" height="24.35"/>
		<rect x="127.08" y="31.99" class="st0" width="24.35" height="24.35"/>
		<rect x="98.15" y="31.99" class="st0" width="24.35" height="24.35"/>
		<rect x="156.02" y="31.99" class="st0" width="24.35" height="24.35"/>
		<rect x="213.89" y="31.99" class="st0" width="24.35" height="24.35"/>
		<rect x="184.96" y="31.99" class="st0" width="24.35" height="24.35"/>
		<rect x="242.83" y="31.99" class="st0" width="24.35" height="24.35"/>
		<rect x="271.77" y="31.99" class="st0" width="24.35" height="24.35"/>
		<g>
			<g>
				<g>
					<path class="st1" d="M205,53.41c-0.14,0-0.28-0.05-0.43-0.17c-6.37-4.75-12.42-10.04-17.98-15.71
						c-0.41-0.42-0.32-1.15-0.11-1.65c0.25-0.59,0.65-0.91,0.89-0.91c0.11,0,0.22,0.06,0.35,0.19c5.61,5.72,11.72,11.05,18.14,15.85
						c0.5,0.37,0.31,1.09,0.24,1.3C205.89,52.93,205.41,53.41,205,53.41L205,53.41z"/>
				</g>
				<g>
					<path class="st1" d="M189.67,55.47c-0.31,0-0.6-0.2-0.76-0.51c-0.19-0.38-0.11-0.84,0.2-1.24c1.33-1.71,2.73-3.4,4.21-5.18
						c3.95-4.74,8.03-9.64,10.58-15.08c0.36-0.76,0.91-0.85,1.13-0.85c0.29,0,0.54,0.12,0.68,0.33c0.16,0.25,0.14,0.61-0.06,1.02
						c-2.69,5.73-6.93,10.9-11.03,15.9c-1.36,1.66-2.77,3.37-4.08,5.06C190.28,55.28,189.97,55.47,189.67,55.47
						C189.67,55.47,189.67,55.47,189.67,55.47z"/>
				</g>
			</g>
		</g>
		<g>
			<g>
				<g>
					<path class="st1" d="M90.23,53.26c-0.14,0-0.28-0.05-0.43-0.17c-6.37-4.75-12.42-10.04-17.98-15.71
						c-0.41-0.42-0.32-1.15-0.11-1.65c0.25-0.59,0.65-0.91,0.89-0.91c0.11,0,0.22,0.06,0.35,0.19c5.61,5.72,11.72,11.05,18.14,15.85
						c0.5,0.37,0.31,1.09,0.24,1.3C91.12,52.78,90.64,53.26,90.23,53.26L90.23,53.26z"/>
				</g>
				<g>
					<path class="st1" d="M81.82,57.55c-0.23,0-0.43-0.08-0.58-0.23c-0.2-0.2-0.29-0.53-0.28-0.94c0.24-7.51,0.13-15.25-0.33-23.02
						c-0.03-0.55,0.26-0.95,0.44-1.15c0.28-0.3,0.66-0.49,0.96-0.49c0.12,0,0.46,0,0.5,0.76c0.47,7.79,0.57,15.83,0.31,23.91
						C82.82,57.19,82.29,57.55,81.82,57.55C81.82,57.55,81.82,57.55,81.82,57.55z"/>
				</g>
				<g>
					<path class="st1" d="M74.9,55.32c-0.31,0-0.6-0.2-0.76-0.51c-0.19-0.38-0.12-0.84,0.2-1.24c1.33-1.71,2.73-3.4,4.21-5.18
						c3.95-4.74,8.03-9.64,10.58-15.08c0.36-0.76,0.91-0.85,1.13-0.85c0.29,0,0.54,0.12,0.68,0.33c0.16,0.25,0.14,0.61-0.06,1.02
						c-2.69,5.73-6.93,10.9-11.03,15.9c-1.36,1.66-2.77,3.37-4.08,5.06C75.51,55.13,75.2,55.32,74.9,55.32L74.9,55.32z"/>
				</g>
				<g>
					<path class="st1" d="M69.87,48.61c-0.13,0-0.39,0-0.43-0.57c-0.05-0.82,0.49-1.89,1.25-1.99c7.98-1.02,16.07-2.01,24.05-2.94
						c0.04,0,0.08-0.01,0.12-0.01c0.13,0,0.41,0,0.45,0.59c0.05,0.82-0.5,1.88-1.25,1.96C86.1,46.58,78,47.58,69.99,48.6
						C69.95,48.6,69.9,48.61,69.87,48.61z"/>
				</g>
			</g>
		</g>
		<g>
			<g>
				<g>
					<path class="st1" d="M31.37,52.79c-0.14,0-0.28-0.05-0.43-0.17c-6.37-4.75-12.42-10.04-17.98-15.71
						c-0.41-0.42-0.32-1.15-0.11-1.65c0.25-0.59,0.65-0.91,0.89-0.91c0.11,0,0.22,0.06,0.35,0.19C19.7,40.27,25.8,45.6,32.23,50.4
						c0.5,0.37,0.31,1.09,0.24,1.3C32.27,52.31,31.78,52.79,31.37,52.79L31.37,52.79z"/>
				</g>
				<g>
					<path class="st1" d="M22.96,57.09c-0.23,0-0.43-0.08-0.58-0.23c-0.2-0.2-0.29-0.53-0.28-0.94c0.24-7.51,0.13-15.25-0.33-23.02
						c-0.03-0.55,0.26-0.95,0.44-1.15c0.28-0.3,0.66-0.49,0.96-0.49c0.12,0,0.46,0,0.5,0.76c0.47,7.79,0.57,15.83,0.31,23.91
						C23.96,56.72,23.44,57.09,22.96,57.09C22.96,57.09,22.96,57.09,22.96,57.09z"/>
				</g>
				<g>
					<path class="st1" d="M16.04,54.85c-0.31,0-0.6-0.2-0.76-0.51c-0.19-0.38-0.12-0.84,0.2-1.24c1.33-1.71,2.73-3.4,4.21-5.18
						c3.95-4.74,8.03-9.64,10.58-15.08c0.36-0.77,0.91-0.85,1.13-0.85c0.29,0,0.54,0.13,0.68,0.33c0.16,0.25,0.14,0.61-0.06,1.02
						c-2.69,5.73-6.93,10.9-11.03,15.89c-1.36,1.66-2.77,3.37-4.08,5.06C16.65,54.67,16.34,54.85,16.04,54.85L16.04,54.85z"/>
				</g>
				<g>
					<path class="st1" d="M11.01,48.14c-0.13,0-0.39,0-0.43-0.57c-0.05-0.82,0.49-1.89,1.25-1.99c7.98-1.02,16.07-2.01,24.05-2.94
						c0.04,0,0.08-0.01,0.12-0.01c0.13,0,0.41,0,0.45,0.59c0.05,0.82-0.5,1.88-1.25,1.96c-7.99,0.94-16.09,1.93-24.07,2.95
						C11.09,48.14,11.05,48.14,11.01,48.14z"/>
				</g>
			</g>
		</g>
		<g>
			<g>
				<g>
					<path class="st1" d="M60.41,54.01c-0.14,0-0.28-0.05-0.43-0.17C53.61,49.09,47.56,43.81,42,38.13
						c-0.41-0.42-0.32-1.15-0.11-1.65c0.25-0.59,0.65-0.91,0.89-0.91c0.11,0,0.22,0.06,0.35,0.19c5.62,5.72,11.72,11.05,18.15,15.85
						c0.5,0.37,0.31,1.09,0.24,1.3C61.31,53.52,60.83,54.01,60.41,54.01L60.41,54.01z"/>
				</g>
				<g>
					<path class="st1" d="M52,58.3c-0.23,0-0.43-0.08-0.58-0.23c-0.2-0.2-0.29-0.53-0.28-0.94c0.24-7.51,0.13-15.25-0.33-23.02
						c-0.03-0.55,0.26-0.96,0.44-1.15c0.28-0.3,0.66-0.49,0.96-0.49c0.12,0,0.46,0,0.5,0.76c0.47,7.79,0.57,15.83,0.31,23.91
						C53,57.94,52.48,58.3,52,58.3L52,58.3z"/>
				</g>
				<g>
					<path class="st1" d="M45.08,56.07c-0.31,0-0.6-0.2-0.76-0.51c-0.19-0.38-0.12-0.84,0.2-1.24c1.33-1.71,2.73-3.4,4.21-5.18
						c3.95-4.74,8.03-9.64,10.58-15.08c0.36-0.76,0.91-0.85,1.13-0.85c0.29,0,0.55,0.12,0.68,0.33c0.16,0.25,0.14,0.61-0.06,1.02
						c-2.69,5.73-6.93,10.89-11.03,15.89c-1.36,1.66-2.77,3.38-4.08,5.07C45.69,55.88,45.39,56.07,45.08,56.07
						C45.09,56.07,45.09,56.07,45.08,56.07z"/>
				</g>
				<g>
					<path class="st1" d="M40.05,49.35c-0.13,0-0.39,0-0.43-0.57c-0.05-0.82,0.49-1.89,1.25-1.99c7.96-1.02,16.06-2.01,24.05-2.94
						c0.04,0,0.08-0.01,0.12-0.01c0.13,0,0.41,0,0.45,0.59c0.05,0.82-0.5,1.88-1.25,1.96c-8,0.94-16.1,1.93-24.07,2.95
						C40.13,49.35,40.09,49.35,40.05,49.35z"/>
				</g>
			</g>
		</g>
		<g>
			<g>
				<g>
					<path class="st1" d="M118.78,53.41c-0.14,0-0.28-0.05-0.43-0.17c-6.37-4.75-12.42-10.04-17.98-15.71
						c-0.41-0.42-0.32-1.15-0.11-1.65c0.25-0.59,0.65-0.91,0.89-0.91c0.11,0,0.22,0.06,0.35,0.19c5.62,5.72,11.72,11.05,18.14,15.85
						c0.5,0.37,0.31,1.09,0.24,1.3C119.67,52.93,119.19,53.41,118.78,53.41L118.78,53.41z"/>
				</g>
				<g>
					<path class="st1" d="M110.37,57.7c-0.23,0-0.43-0.08-0.58-0.23c-0.2-0.2-0.29-0.53-0.28-0.94c0.24-7.51,0.13-15.25-0.33-23.02
						c-0.03-0.55,0.26-0.95,0.44-1.15c0.28-0.3,0.66-0.49,0.96-0.49c0.12,0,0.46,0,0.5,0.76c0.47,7.79,0.57,15.83,0.31,23.91
						C111.37,57.34,110.84,57.7,110.37,57.7z"/>
				</g>
				<g>
					<path class="st1" d="M103.45,55.47c-0.31,0-0.6-0.2-0.76-0.51c-0.19-0.38-0.12-0.84,0.2-1.24c1.33-1.71,2.73-3.4,4.21-5.18
						c3.95-4.74,8.03-9.64,10.58-15.08c0.36-0.76,0.91-0.85,1.13-0.85c0.29,0,0.55,0.12,0.68,0.33c0.16,0.25,0.14,0.61-0.06,1.02
						c-2.69,5.73-6.93,10.9-11.03,15.9c-1.36,1.66-2.77,3.37-4.08,5.06C104.06,55.28,103.75,55.47,103.45,55.47
						C103.45,55.47,103.45,55.47,103.45,55.47z"/>
				</g>
				<g>
					<path class="st1" d="M98.42,48.76c-0.13,0-0.39,0-0.43-0.57c-0.05-0.82,0.49-1.89,1.25-1.99c7.97-1.02,16.06-2.01,24.05-2.94
						c0.04,0,0.08-0.01,0.12-0.01c0.13,0,0.41,0,0.45,0.59c0.05,0.82-0.5,1.88-1.25,1.96c-7.95,0.93-16.05,1.92-24.07,2.95
						C98.5,48.75,98.46,48.76,98.42,48.76z"/>
				</g>
			</g>
		</g>
		<g>
			<g>
				<g>
					<path class="st1" d="M147.44,53.41c-0.14,0-0.28-0.05-0.43-0.17c-6.37-4.75-12.42-10.04-17.98-15.71
						c-0.41-0.42-0.32-1.15-0.11-1.65c0.25-0.59,0.65-0.91,0.89-0.91c0.11,0,0.22,0.06,0.35,0.19c5.61,5.72,11.72,11.05,18.14,15.85
						c0.5,0.37,0.31,1.09,0.24,1.3C148.33,52.93,147.85,53.41,147.44,53.41L147.44,53.41z"/>
				</g>
				<g>
					<path class="st1" d="M139.02,57.7c-0.23,0-0.43-0.08-0.58-0.23c-0.2-0.2-0.29-0.53-0.28-0.94c0.24-7.51,0.13-15.25-0.33-23.02
						c-0.03-0.55,0.26-0.95,0.44-1.15c0.28-0.3,0.66-0.49,0.96-0.49c0.12,0,0.46,0,0.5,0.76c0.47,7.79,0.57,15.83,0.31,23.91
						C140.02,57.34,139.5,57.7,139.02,57.7z"/>
				</g>
				<g>
					<path class="st1" d="M132.11,55.47c-0.31,0-0.6-0.2-0.76-0.51c-0.19-0.38-0.12-0.84,0.2-1.24c1.33-1.71,2.73-3.4,4.21-5.18
						c3.95-4.74,8.03-9.64,10.58-15.08c0.36-0.76,0.91-0.85,1.13-0.85c0.29,0,0.54,0.12,0.68,0.33c0.16,0.25,0.14,0.61-0.06,1.02
						c-2.69,5.73-6.93,10.9-11.03,15.9c-1.36,1.66-2.77,3.37-4.08,5.06C132.72,55.28,132.41,55.47,132.11,55.47L132.11,55.47z"/>
				</g>
				<g>
					<path class="st1" d="M127.07,48.76c-0.13,0-0.39,0-0.43-0.57c-0.05-0.82,0.49-1.89,1.25-1.99c7.98-1.02,16.07-2.01,24.05-2.94
						c0.04,0,0.08-0.01,0.12-0.01c0.13,0,0.41,0,0.45,0.59c0.05,0.82-0.5,1.88-1.25,1.96c-7.96,0.93-16.06,1.92-24.07,2.95
						C127.15,48.75,127.11,48.76,127.07,48.76z"/>
				</g>
			</g>
		</g>
		<g>
			<g>
				<g>
					<path class="st1" d="M176.05,52.66c-0.14,0-0.28-0.05-0.43-0.17c-6.37-4.75-12.42-10.04-17.98-15.71
						c-0.41-0.42-0.32-1.15-0.11-1.65c0.25-0.59,0.65-0.91,0.89-0.91c0.11,0,0.22,0.06,0.35,0.19c5.62,5.72,11.72,11.05,18.14,15.85
						c0.5,0.37,0.31,1.09,0.24,1.3C176.95,52.18,176.47,52.66,176.05,52.66L176.05,52.66z"/>
				</g>
				<g>
					<path class="st1" d="M167.64,56.96c-0.23,0-0.43-0.08-0.58-0.23c-0.2-0.2-0.29-0.53-0.28-0.94c0.24-7.5,0.13-15.25-0.33-23.02
						c-0.03-0.55,0.26-0.95,0.44-1.15c0.28-0.3,0.66-0.49,0.96-0.49c0.12,0,0.46,0,0.5,0.76c0.47,7.78,0.57,15.83,0.31,23.91
						C168.64,56.59,168.12,56.96,167.64,56.96L167.64,56.96z"/>
				</g>
				<g>
					<path class="st1" d="M160.73,54.73c-0.31,0-0.6-0.2-0.76-0.51c-0.19-0.38-0.12-0.84,0.2-1.24c1.33-1.71,2.73-3.4,4.21-5.18
						c3.95-4.74,8.03-9.64,10.58-15.08c0.36-0.77,0.91-0.85,1.13-0.85c0.29,0,0.54,0.12,0.68,0.33c0.16,0.25,0.14,0.61-0.06,1.02
						c-2.69,5.72-6.92,10.89-11.02,15.89c-1.36,1.66-2.77,3.38-4.08,5.07C161.33,54.54,161.03,54.73,160.73,54.73L160.73,54.73z"/>
				</g>
				<g>
					<path class="st1" d="M155.69,48.01c-0.13,0-0.39,0-0.43-0.57c-0.05-0.82,0.49-1.89,1.25-1.99c7.96-1.02,16.05-2.01,24.05-2.94
						c0.04,0,0.08-0.01,0.12-0.01c0.13,0,0.41,0,0.45,0.59c0.05,0.82-0.5,1.88-1.25,1.96c-7.99,0.94-16.08,1.93-24.07,2.95
						C155.77,48.01,155.73,48.01,155.69,48.01z"/>
				</g>
			</g>
		</g>
	</g>
	<g>
		<circle class="st2" cx="199.74" cy="15.51" r="11.25"/>
		<g>
			<path class="st3" d="M202.32,12.16c-0.27-0.02-0.56,0-0.95,0.03c-2.16,0.18-3.12,1.28-3.39,2.5h0.05
				c0.51-0.53,1.23-0.83,2.21-0.83c1.74,0,3.22,1.23,3.22,3.39c0,2.06-1.58,3.76-3.84,3.76c-2.77,0-4.13-2.06-4.13-4.55
				c0-1.95,0.72-3.59,1.84-4.63c1.04-0.94,2.38-1.46,4.02-1.54c0.45-0.03,0.74-0.03,0.98-0.02V12.16z M200.99,17.38
				c0-0.96-0.51-1.79-1.55-1.79c-0.66,0-1.2,0.4-1.44,0.93c-0.06,0.13-0.1,0.32-0.1,0.61c0.05,1.1,0.58,2.1,1.68,2.1
				C200.45,19.22,200.99,18.44,200.99,17.38z"/>
		</g>
		<g>
			<path class="st4" d="M98.35,18.38c-0.18,0-0.62-0.03-0.83-0.05v1.17c0,0.42,0.13,0.57,0.4,0.57v0.22h-2.6v-0.22
				c0.27,0,0.4-0.15,0.4-0.57v-5.55c0-0.3-0.17-0.44-0.4-0.44v-0.24c0.49-0.04,1.32-0.08,2.65-0.08c1.92,0,3.41,0.58,3.41,2.59
				C101.38,17.71,99.81,18.38,98.35,18.38z M98.16,14.63c-0.21,0-0.46,0.01-0.64,0.02v2.31c0.2,0.02,0.43,0.03,0.69,0.03
				c0.75,0,1.33-0.35,1.33-1.21C99.54,14.92,98.87,14.63,98.16,14.63z"/>
			<path class="st4" d="M105.81,20.29c-0.28-0.49-0.55-1.44-0.71-2.13c-0.11,0.01-0.3,0.02-0.49,0.02c-0.17,0-0.35-0.01-0.49-0.02
				v1.36c0,0.42,0.13,0.55,0.4,0.55v0.22h-2.6v-0.22c0.25,0,0.4-0.13,0.4-0.55v-5.51c0-0.3-0.14-0.5-0.4-0.5v-0.22
				c0.46-0.02,1.48-0.09,2.5-0.09c2.06,0,3.68,0.37,3.68,2.43c0,1.04-0.69,1.78-1.43,2.09c0.16,0.59,0.57,1.51,0.97,2.08
				c0.13,0.18,0.23,0.27,0.5,0.27v0.22H105.81z M104.66,14.64c-0.21,0-0.41,0.01-0.54,0.02v2.12c0.2,0.02,0.4,0.03,0.59,0.03
				c1.06,0,1.55-0.34,1.55-1.11C106.26,14.99,105.77,14.64,104.66,14.64z"/>
			<path class="st4" d="M112.04,20.52c-2.14,0-3.38-1.62-3.38-3.75c0-2.35,1.5-3.71,3.38-3.71c1.89,0,3.39,1.37,3.39,3.71
				C115.43,18.92,114.19,20.52,112.04,20.52z M112.03,14.55c-0.82,0-1.51,0.73-1.51,2.22c0,1.46,0.6,2.27,1.51,2.27
				c0.95,0,1.52-0.82,1.52-2.26C113.55,15.18,112.84,14.55,112.03,14.55z"/>
			<path class="st4" d="M122.06,17.51v1.86c0,0.15,0.05,0.31,0.12,0.41c-0.46,0.29-1.27,0.74-2.73,0.74c-2.1,0-3.46-1.57-3.46-3.78
				c0-2.31,1.87-3.6,3.3-3.6c0.67,0,1.23,0.11,1.39,0.11c0.21,0,0.37-0.08,0.37-0.08l0.55,2.12l-0.28,0.1
				c-0.05-0.15-0.21-0.41-0.37-0.52c-0.24-0.17-0.48-0.27-1.09-0.27c-1.04,0-2,0.68-2,2.12c0,1.42,0.74,2.32,1.7,2.32
				c0.32,0,0.6-0.07,0.74-0.13v-1.4c0-0.31-0.15-0.44-0.39-0.44v-0.22h2.54v0.22C122.21,17.07,122.06,17.21,122.06,17.51z"/>
			<path class="st4" d="M126.84,20.29c-0.28-0.49-0.55-1.44-0.71-2.13c-0.11,0.01-0.3,0.02-0.49,0.02c-0.17,0-0.35-0.01-0.49-0.02
				v1.36c0,0.42,0.13,0.55,0.4,0.55v0.22h-2.6v-0.22c0.25,0,0.4-0.13,0.4-0.55v-5.51c0-0.3-0.14-0.5-0.4-0.5v-0.22
				c0.46-0.02,1.48-0.09,2.5-0.09c2.06,0,3.68,0.37,3.68,2.43c0,1.04-0.69,1.78-1.43,2.09c0.16,0.59,0.57,1.51,0.97,2.08
				c0.13,0.18,0.23,0.27,0.5,0.27v0.22H126.84z M125.69,14.64c-0.21,0-0.41,0.01-0.54,0.02v2.12c0.2,0.02,0.4,0.03,0.59,0.03
				c1.06,0,1.55-0.34,1.55-1.11C127.29,14.99,126.8,14.64,125.69,14.64z"/>
			<path class="st4" d="M134.7,20.4c-0.17-0.06-0.47-0.11-0.66-0.11h-4.31v-0.22c0.27,0,0.4-0.18,0.4-0.52v-5.53
				c0-0.3-0.17-0.52-0.4-0.52v-0.21h4.38c0.15,0,0.48-0.05,0.57-0.07l0.35,1.78l-0.21,0.07c-0.17-0.3-0.29-0.37-0.63-0.37h-2.26
				v1.21h2.06c0.22,0,0.34-0.08,0.34-0.3h0.23v2.03h-0.23c0-0.21-0.12-0.29-0.34-0.29h-2.06v1.5h2.29c0.37,0,0.49-0.1,0.65-0.44
				l0.24,0.08L134.7,20.4z"/>
			<path class="st4" d="M138.19,20.5c-0.63,0-1.51-0.23-1.82-0.23c-0.17,0-0.31,0.04-0.37,0.07l-0.37-2.29l0.35-0.11
				c0.08,0.2,0.14,0.41,0.31,0.58c0.3,0.3,0.72,0.51,1.62,0.51c0.85,0,1.17-0.27,1.17-0.64c0-0.27-0.19-0.45-1.58-1.06
				c-1.18-0.51-1.75-1.12-1.75-2.01c0-1.28,0.98-2.22,2.83-2.22c0.48,0,1.11,0.17,1.38,0.17c0.17,0,0.3-0.03,0.36-0.06l0.21,2.04
				l-0.29,0.06c-0.06-0.18-0.16-0.35-0.36-0.49c-0.24-0.16-0.54-0.27-1.23-0.27c-0.76,0-1.04,0.28-1.04,0.55
				c0,0.27,0.29,0.47,1.43,0.96c1.02,0.44,1.83,1.01,1.83,2.18C140.87,19.56,140.1,20.5,138.19,20.5z"/>
			<path class="st4" d="M143.99,20.5c-0.63,0-1.51-0.23-1.82-0.23c-0.17,0-0.31,0.04-0.37,0.07l-0.37-2.29l0.35-0.11
				c0.08,0.2,0.14,0.41,0.31,0.58c0.3,0.3,0.72,0.51,1.62,0.51c0.85,0,1.17-0.27,1.17-0.64c0-0.27-0.19-0.45-1.58-1.06
				c-1.18-0.51-1.75-1.12-1.75-2.01c0-1.28,0.98-2.22,2.83-2.22c0.48,0,1.11,0.17,1.38,0.17c0.17,0,0.3-0.03,0.36-0.06l0.21,2.04
				l-0.29,0.06c-0.06-0.18-0.16-0.35-0.36-0.49c-0.24-0.16-0.54-0.27-1.23-0.27c-0.76,0-1.04,0.28-1.04,0.55
				c0,0.27,0.29,0.47,1.43,0.96c1.02,0.44,1.83,1.01,1.83,2.18C146.67,19.56,145.9,20.5,143.99,20.5z"/>
			<path class="st4" d="M151.91,20.5c-0.63,0-1.51-0.23-1.82-0.23c-0.17,0-0.31,0.04-0.37,0.07l-0.37-2.29l0.35-0.11
				c0.08,0.2,0.14,0.41,0.31,0.58c0.3,0.3,0.72,0.51,1.62,0.51c0.85,0,1.17-0.27,1.17-0.64c0-0.27-0.19-0.45-1.58-1.06
				c-1.18-0.51-1.75-1.12-1.75-2.01c0-1.28,0.98-2.22,2.83-2.22c0.48,0,1.11,0.17,1.38,0.17c0.17,0,0.3-0.03,0.36-0.06l0.21,2.04
				l-0.29,0.06c-0.06-0.18-0.16-0.35-0.36-0.49c-0.24-0.16-0.54-0.27-1.23-0.27c-0.76,0-1.04,0.28-1.04,0.55
				c0,0.27,0.29,0.47,1.43,0.96c1.02,0.44,1.83,1.01,1.83,2.18C154.59,19.56,153.82,20.5,151.91,20.5z"/>
			<path class="st4" d="M160.55,20.33c0,0-0.15-0.05-0.36-0.05c-0.13,0-0.88,0.14-1.59,0.14c-1.91,0-3.45-1.31-3.45-3.64
				c0-2.43,1.75-3.64,3.45-3.64c0.63,0,1.43,0.12,1.59,0.12c0.21,0,0.36-0.06,0.36-0.06l0.39,2.06l-0.3,0.09
				c-0.2-0.64-1.06-0.75-1.63-0.75c-1.04,0-2,0.64-2,2.19c0,1.56,1.03,2.12,2.03,2.12c0.85,0,1.41-0.19,1.63-0.87l0.31,0.09
				L160.55,20.33z"/>
			<path class="st4" d="M164.9,20.52c-2.14,0-3.38-1.62-3.38-3.75c0-2.35,1.5-3.71,3.38-3.71c1.89,0,3.39,1.37,3.39,3.71
				C168.29,18.92,167.05,20.52,164.9,20.52z M164.89,14.55c-0.82,0-1.51,0.73-1.51,2.22c0,1.46,0.6,2.27,1.51,2.27
				c0.95,0,1.52-0.82,1.52-2.26C166.41,15.18,165.7,14.55,164.89,14.55z"/>
			<path class="st4" d="M172.78,20.29c-0.28-0.49-0.55-1.44-0.71-2.13c-0.11,0.01-0.3,0.02-0.49,0.02c-0.17,0-0.35-0.01-0.49-0.02
				v1.36c0,0.42,0.13,0.55,0.4,0.55v0.22h-2.6v-0.22c0.25,0,0.4-0.13,0.4-0.55v-5.51c0-0.3-0.14-0.5-0.4-0.5v-0.22
				c0.46-0.02,1.48-0.09,2.5-0.09c2.06,0,3.68,0.37,3.68,2.43c0,1.04-0.69,1.78-1.43,2.09c0.16,0.59,0.57,1.51,0.97,2.08
				c0.13,0.18,0.23,0.27,0.5,0.27v0.22H172.78z M171.63,14.64c-0.21,0-0.41,0.01-0.54,0.02v2.12c0.2,0.02,0.4,0.03,0.59,0.03
				c1.06,0,1.55-0.34,1.55-1.11C173.23,14.99,172.74,14.64,171.63,14.64z"/>
			<path class="st4" d="M180.64,20.4c-0.17-0.06-0.47-0.11-0.66-0.11h-4.31v-0.22c0.27,0,0.4-0.18,0.4-0.52v-5.53
				c0-0.3-0.17-0.52-0.4-0.52v-0.21h4.38c0.15,0,0.48-0.05,0.57-0.07l0.35,1.78l-0.21,0.07c-0.17-0.3-0.29-0.37-0.63-0.37h-2.26
				v1.21h2.06c0.22,0,0.34-0.08,0.34-0.3h0.23v2.03h-0.23c0-0.21-0.12-0.29-0.34-0.29h-2.06v1.5h2.29c0.37,0,0.49-0.1,0.65-0.44
				l0.24,0.08L180.64,20.4z"/>
		</g>
	</g>
	<g>
		<g>
			<g>
				<path class="st3" d="M191.22,97.52l-30.06-32.36c-0.64-0.69-1.55-1.09-2.49-1.09h0c-0.95,0-1.85,0.39-2.49,1.09l-30.07,32.36
					c-1.22,1.31-1.21,3.35,0.02,4.65l30.07,31.82c0.64,0.68,1.54,1.07,2.47,1.07s1.83-0.39,2.47-1.07l30.07-31.82
					C192.44,100.87,192.44,98.83,191.22,97.52z"/>
				<path class="st5" d="M161.21,100.37l12.25-5.29c0.56-0.24,0.95-0.66,1.11-1.18c0.15-0.52,0.05-1.08-0.28-1.59L159.79,70.4
					c-0.32-0.48-0.72-0.75-1.12-0.75c-0.4,0-0.8,0.27-1.12,0.75l-14.49,21.92c-0.34,0.51-0.44,1.07-0.28,1.59
					c0.15,0.52,0.55,0.93,1.11,1.18l12.25,5.29c0.65,0.28,1.58,0.44,2.54,0.44C159.63,100.82,160.55,100.66,161.21,100.37z"/>
				<path class="st6" d="M187.31,100.94c-0.09-0.43-0.43-0.8-0.97-1.03l-6.59-2.88c-0.66-0.29-1.59-0.45-2.56-0.45
					c-0.95,0-1.87,0.16-2.52,0.44l-12.25,5.29c-1.3,0.56-2.4,2.23-2.4,3.65l0,23.32c0,0.62,0.15,0.85,0.19,0.88l0,0
					c0.1,0,0.36-0.11,0.74-0.51l25.86-27.37C187.22,101.85,187.39,101.38,187.31,100.94z"/>
				<path class="st7" d="M180.29,95.1l6.39,2.8l-22.22-23.91l11.63,17.58C176.95,92.86,178.87,94.48,180.29,95.1z"/>
				<path class="st6" d="M154.9,102.3l-12.25-5.29c-0.65-0.28-1.57-0.44-2.52-0.44c-0.97,0-1.9,0.17-2.56,0.45l-6.59,2.88
					c-0.54,0.24-0.88,0.6-0.97,1.03c-0.09,0.43,0.09,0.9,0.49,1.33l25.86,27.37c0.38,0.4,0.64,0.51,0.74,0.51l0.01,0
					c0.03-0.02,0.18-0.25,0.18-0.88l0-23.32C157.3,104.54,156.21,102.87,154.9,102.3z"/>
				<path class="st7" d="M137.04,95.1c1.42-0.62,3.34-2.24,4.2-3.53l11.63-17.59L130.64,97.9L137.04,95.1z"/>
				<g>
					<g>
						<path class="st3" d="M158.86,95.31v-3.72h-6.91v-2.38l5.9-9.5h4.46v9.15h1.87v2.74h-1.87v3.72H158.86z M158.86,88.85v-3.46
							c0-0.94,0.05-1.9,0.12-2.9h-0.1c-0.5,1.01-0.91,1.92-1.44,2.9l-2.09,3.41v0.05H158.86z"/>
					</g>
					<g>
						<path class="st3" d="M158.86,95.31v-3.72h-6.91v-2.38l5.9-9.5h4.46v9.15h1.87v2.74h-1.87v3.72H158.86z M158.86,88.85v-3.46
							c0-0.94,0.05-1.9,0.12-2.9h-0.1c-0.5,1.01-0.91,1.92-1.44,2.9l-2.09,3.41v0.05H158.86z"/>
					</g>
				</g>
			</g>
			<g>
				<path class="st3" d="M269.91,97.52l-30.06-32.36c-0.64-0.69-1.55-1.09-2.49-1.09h0c-0.95,0-1.85,0.39-2.49,1.09l-30.07,32.36
					c-1.22,1.31-1.21,3.35,0.02,4.65l30.07,31.82c0.64,0.68,1.54,1.07,2.47,1.07s1.83-0.39,2.47-1.07l30.07-31.82
					C271.12,100.87,271.13,98.83,269.91,97.52z"/>
				<path class="st5" d="M239.9,100.37l12.25-5.29c0.56-0.24,0.95-0.66,1.11-1.18c0.15-0.52,0.05-1.08-0.28-1.59L238.48,70.4
					c-0.32-0.48-0.72-0.75-1.12-0.75s-0.8,0.27-1.12,0.75l-14.49,21.92c-0.34,0.51-0.44,1.07-0.28,1.59
					c0.15,0.52,0.55,0.93,1.11,1.18l12.25,5.29c0.65,0.28,1.58,0.44,2.54,0.44S239.24,100.66,239.9,100.37z"/>
				<path class="st6" d="M265.99,100.94c-0.09-0.43-0.43-0.8-0.97-1.03l-6.59-2.88c-0.66-0.29-1.59-0.45-2.56-0.45
					c-0.95,0-1.87,0.16-2.52,0.44l-12.25,5.29c-1.3,0.56-2.4,2.23-2.4,3.65l0,23.32c0,0.62,0.15,0.85,0.19,0.88l0,0
					c0.1,0,0.36-0.11,0.74-0.51l25.86-27.37C265.91,101.85,266.08,101.38,265.99,100.94z"/>
				<path class="st7" d="M258.98,95.1l6.39,2.8l-22.22-23.91l11.63,17.58C255.64,92.86,257.56,94.48,258.98,95.1z"/>
				<path class="st6" d="M233.59,102.3l-12.25-5.29c-0.65-0.28-1.57-0.44-2.52-0.44c-0.97,0-1.9,0.17-2.56,0.45l-6.59,2.88
					c-0.54,0.24-0.88,0.6-0.97,1.03c-0.09,0.43,0.09,0.9,0.49,1.33l25.86,27.37c0.38,0.4,0.64,0.51,0.74,0.51l0.01,0
					c0.03-0.02,0.18-0.25,0.18-0.88l0-23.32C235.99,104.54,234.89,102.87,233.59,102.3z"/>
				<path class="st7" d="M215.73,95.1c1.42-0.62,3.34-2.24,4.2-3.53l11.63-17.59L209.33,97.9L215.73,95.1z"/>
				<g>
					<g>
						<path class="st3" d="M241.8,83.05c-0.41-0.02-0.84,0-1.42,0.05c-3.24,0.26-4.68,1.92-5.09,3.74h0.07
							c0.77-0.79,1.85-1.25,3.31-1.25c2.62,0,4.82,1.85,4.82,5.09c0,3.1-2.38,5.64-5.76,5.64c-4.15,0-6.19-3.1-6.19-6.82
							c0-2.93,1.08-5.38,2.76-6.94c1.56-1.42,3.58-2.18,6.02-2.3c0.67-0.05,1.1-0.05,1.46-0.02V83.05z M239.81,90.87
							c0-1.44-0.77-2.69-2.33-2.69c-0.98,0-1.8,0.6-2.16,1.39c-0.1,0.19-0.14,0.48-0.14,0.91c0.07,1.66,0.86,3.14,2.52,3.14
							C238.99,93.63,239.81,92.46,239.81,90.87z"/>
					</g>
					<g>
						<path class="st3" d="M241.8,83.05c-0.41-0.02-0.84,0-1.42,0.05c-3.24,0.26-4.68,1.92-5.09,3.74h0.07
							c0.77-0.79,1.85-1.25,3.31-1.25c2.62,0,4.82,1.85,4.82,5.09c0,3.1-2.38,5.64-5.76,5.64c-4.15,0-6.19-3.1-6.19-6.82
							c0-2.93,1.08-5.38,2.76-6.94c1.56-1.42,3.58-2.18,6.02-2.3c0.67-0.05,1.1-0.05,1.46-0.02V83.05z M239.81,90.87
							c0-1.44-0.77-2.69-2.33-2.69c-0.98,0-1.8,0.6-2.16,1.39c-0.1,0.19-0.14,0.48-0.14,0.91c0.07,1.66,0.86,3.14,2.52,3.14
							C238.99,93.63,239.81,92.46,239.81,90.87z"/>
					</g>
				</g>
			</g>
			<circle class="st8" cx="178.31" cy="118.27" r="11.88"/>
			<circle class="st8" cx="259" cy="118.61" r="11.88"/>
			<polygon class="st3" points="265.66,123.02 263.56,125.22 259,121.08 254.44,125.22 252.34,123.02 256.74,119.03 252.34,115.05 
				254.29,112.69 259,116.97 263.71,112.69 265.66,115.05 261.26,119.03 			"/>
			<polygon class="st3" points="176.91,125.63 170.72,120.91 172.31,118.83 176.42,121.97 183.83,112.27 185.9,113.86 			"/>
		</g>
		<g>
			<g>
				<path class="st4" d="M40.79,102.83c0,0-0.15-0.05-0.36-0.05c-0.13,0-0.88,0.14-1.59,0.14c-1.91,0-3.45-1.31-3.45-3.64
					c0-2.43,1.75-3.64,3.45-3.64c0.63,0,1.43,0.12,1.59,0.12c0.21,0,0.36-0.06,0.36-0.06l0.39,2.06l-0.3,0.09
					c-0.2-0.64-1.06-0.75-1.63-0.75c-1.04,0-2,0.64-2,2.19c0,1.56,1.03,2.12,2.03,2.12c0.85,0,1.41-0.19,1.63-0.87l0.31,0.09
					L40.79,102.83z"/>
				<path class="st4" d="M45.96,102.79v-0.22c0.27,0,0.4-0.16,0.4-0.58V99.9h-2.36v2.09c0,0.41,0.13,0.58,0.4,0.58v0.22h-2.6v-0.22
					c0.26,0,0.4-0.16,0.4-0.58v-5.52c0-0.3-0.18-0.46-0.4-0.46v-0.22h2.6v0.22c-0.27,0-0.4,0.15-0.4,0.57v1.82h2.36v-1.93
					c0-0.3-0.15-0.46-0.4-0.46v-0.22h2.59v0.22c-0.27,0-0.39,0.15-0.39,0.57v5.41c0,0.41,0.1,0.58,0.39,0.58v0.22H45.96z"/>
				<path class="st4" d="M53.19,102.79v-0.22c0.26,0,0.39-0.11,0.39-0.3c0-0.06-0.04-0.19-0.06-0.25l-0.05-0.17
					c-0.28,0.1-0.69,0.16-1.08,0.16c-0.36,0-0.76-0.06-1.06-0.16l-0.07,0.19c-0.04,0.1-0.06,0.18-0.06,0.25
					c0,0.2,0.13,0.28,0.34,0.28v0.22h-2.59v-0.22c0.25,0,0.33-0.04,0.47-0.45l1.85-5.48c0.03-0.1,0.08-0.29,0.08-0.38
					c0-0.16-0.08-0.25-0.23-0.25v-0.22h2.65v0.22c-0.15,0-0.24,0.08-0.24,0.26c0,0.11,0.04,0.24,0.12,0.48l1.79,5.35
					c0.14,0.41,0.23,0.47,0.47,0.47v0.22H53.19z M52.4,97.75L52.4,97.75l-0.73,2.74c0.19,0.06,0.54,0.12,0.77,0.12
					c0.24,0,0.52-0.04,0.69-0.12L52.4,97.75z"/>
				<path class="st4" d="M61.27,102.9c-0.16-0.06-0.39-0.11-0.57-0.11h-4.39v-0.22c0.26,0,0.4-0.15,0.4-0.55V96.5
					c0-0.3-0.17-0.49-0.4-0.49v-0.22h2.6v0.22c-0.24,0-0.4,0.14-0.4,0.54v4.8h2.36c0.31,0,0.47-0.15,0.58-0.44l0.24,0.08
					L61.27,102.9z"/>
				<path class="st4" d="M67.11,102.9c-0.16-0.06-0.39-0.11-0.57-0.11h-4.39v-0.22c0.26,0,0.4-0.15,0.4-0.55V96.5
					c0-0.3-0.17-0.49-0.4-0.49v-0.22h2.6v0.22c-0.24,0-0.4,0.14-0.4,0.54v4.8h2.36c0.31,0,0.47-0.15,0.58-0.44l0.24,0.08
					L67.11,102.9z"/>
				<path class="st4" d="M72.96,102.9c-0.17-0.06-0.47-0.11-0.66-0.11H68v-0.22c0.27,0,0.4-0.18,0.4-0.52v-5.53
					c0-0.3-0.17-0.52-0.4-0.52v-0.21h4.38c0.15,0,0.48-0.05,0.57-0.07l0.35,1.78l-0.21,0.07c-0.17-0.3-0.29-0.37-0.63-0.37H70.2
					v1.21h2.06c0.22,0,0.34-0.08,0.34-0.3h0.23v2.03h-0.23c0-0.21-0.12-0.29-0.34-0.29H70.2v1.5h2.29c0.37,0,0.49-0.1,0.65-0.44
					l0.24,0.08L72.96,102.9z"/>
				<path class="st4" d="M80.18,96.56v6.23h-1.57c-0.01-0.19-0.12-0.45-0.23-0.63l-2.42-3.86h-0.04v3.7c0,0.41,0.12,0.57,0.39,0.57
					v0.22h-2.38v-0.22c0.27,0,0.4-0.15,0.4-0.57v-5.49c0-0.3-0.17-0.5-0.4-0.5v-0.22h2.55c0.03,0.18,0.1,0.35,0.28,0.64l1.78,2.87
					h0.04v-2.78c0-0.38-0.12-0.51-0.4-0.51v-0.22h2.39v0.22C80.3,96.01,80.18,96.14,80.18,96.56z"/>
				<path class="st4" d="M87.24,100.01v1.86c0,0.15,0.05,0.31,0.12,0.41c-0.46,0.29-1.27,0.74-2.73,0.74c-2.1,0-3.46-1.57-3.46-3.78
					c0-2.31,1.87-3.6,3.3-3.6c0.67,0,1.23,0.11,1.39,0.11c0.21,0,0.37-0.08,0.37-0.08l0.55,2.12l-0.28,0.1
					c-0.05-0.15-0.21-0.41-0.37-0.52c-0.24-0.17-0.48-0.27-1.09-0.27c-1.04,0-2,0.68-2,2.12c0,1.42,0.74,2.32,1.7,2.32
					c0.32,0,0.6-0.07,0.74-0.13v-1.4c0-0.31-0.15-0.44-0.39-0.44v-0.22h2.54v0.22C87.39,99.57,87.24,99.71,87.24,100.01z"/>
				<path class="st4" d="M93.1,102.9c-0.17-0.06-0.47-0.11-0.66-0.11h-4.31v-0.22c0.27,0,0.4-0.18,0.4-0.52v-5.53
					c0-0.3-0.17-0.52-0.4-0.52v-0.21h4.38c0.15,0,0.48-0.05,0.57-0.07l0.35,1.78l-0.21,0.07c-0.17-0.3-0.29-0.37-0.63-0.37h-2.26
					v1.21h2.06c0.22,0,0.34-0.08,0.34-0.3h0.23v2.03h-0.23c0-0.21-0.12-0.29-0.34-0.29h-2.06v1.5h2.29c0.37,0,0.49-0.1,0.65-0.44
					l0.24,0.08L93.1,102.9z"/>
				<path class="st4" d="M98.47,102.88c-0.87,0-1.83-0.04-2.27-0.09v-0.22c0.27,0,0.4-0.15,0.4-0.57v-5.49c0-0.3-0.17-0.49-0.4-0.5
					v-0.22c0.51-0.05,1.38-0.1,2.43-0.1c2.69,0,3.96,1.44,3.96,3.52C102.58,101.4,101.44,102.88,98.47,102.88z M98.96,97.14
					c-0.17,0-0.4,0.01-0.56,0.02v4.23c0.12,0.02,0.36,0.03,0.54,0.03c1.09,0,1.78-0.75,1.78-2.19
					C100.71,97.81,99.94,97.14,98.96,97.14z"/>
				<path class="st4" d="M103.19,102.79v-0.22c0.26,0,0.4-0.15,0.4-0.57v-5.49c0-0.3-0.17-0.5-0.4-0.5v-0.22h2.6v0.22
					c-0.24,0-0.4,0.13-0.4,0.55V102c0,0.41,0.13,0.57,0.4,0.57v0.22H103.19z"/>
				<path class="st4" d="M111.78,102.83c0,0-0.15-0.05-0.36-0.05c-0.13,0-0.88,0.14-1.59,0.14c-1.91,0-3.45-1.31-3.45-3.64
					c0-2.43,1.75-3.64,3.45-3.64c0.63,0,1.43,0.12,1.59,0.12c0.21,0,0.36-0.06,0.36-0.06l0.39,2.06l-0.3,0.09
					c-0.2-0.64-1.06-0.75-1.63-0.75c-1.04,0-2,0.64-2,2.19c0,1.56,1.03,2.12,2.03,2.12c0.85,0,1.41-0.19,1.63-0.87l0.31,0.09
					L111.78,102.83z"/>
				<path class="st4" d="M117.76,102.9c-0.17-0.06-0.47-0.11-0.66-0.11h-4.31v-0.22c0.27,0,0.4-0.18,0.4-0.52v-5.53
					c0-0.3-0.17-0.52-0.4-0.52v-0.21h4.38c0.15,0,0.48-0.05,0.57-0.07l0.35,1.78l-0.21,0.07c-0.17-0.3-0.29-0.37-0.63-0.37H115v1.21
					h2.06c0.22,0,0.34-0.08,0.34-0.3h0.23v2.03h-0.23c0-0.21-0.12-0.29-0.34-0.29H115v1.5h2.29c0.37,0,0.49-0.1,0.65-0.44l0.24,0.08
					L117.76,102.9z"/>
			</g>
		</g>
	</g>
</g>
<g id="Layer_3">
</g>
</svg>
