<?xml version="1.0" encoding="utf-8"?>
<!-- Generator: Adobe Illustrator 26.3.1, SVG Export Plug-In . SVG Version: 6.00 Build 0)  -->
<svg version="1.1" xmlns="http://www.w3.org/2000/svg" xmlns:xlink="http://www.w3.org/1999/xlink" x="0px" y="0px"
	 viewBox="0 0 29.33 29.83" style="enable-background:new 0 0 29.33 29.83;" xml:space="preserve">
<style type="text/css">
	.st0{fill:none;stroke:#4D4D4F;stroke-width:1.8;stroke-miterlimit:10;}
	.st1{fill:#282829;}
</style>
<g id="Layer_2">
	<rect x="2.28" y="2.35" class="st0" width="24.35" height="24.35"/>
</g>
<g id="Layer_1">
	<g>
		<g>
			<g>
				<path class="st1" d="M22.85,23.54c-0.14,0-0.28-0.05-0.43-0.17C16.05,18.62,10,13.33,4.44,7.67C4.02,7.24,4.12,6.52,4.33,6.02
					C4.58,5.42,4.97,5.1,5.22,5.1c0.11,0,0.22,0.06,0.35,0.19c5.61,5.72,11.72,11.05,18.14,15.85c0.5,0.37,0.31,1.09,0.24,1.3
					C23.75,23.06,23.27,23.54,22.85,23.54L22.85,23.54z"/>
			</g>
			<g>
				<path class="st1" d="M13.44,27.83c-0.23,0-0.43-0.08-0.58-0.23c-0.2-0.2-0.29-0.53-0.28-0.94c0.24-7.51,0.13-15.25-0.33-23.02
					c-0.03-0.55,0.26-0.95,0.44-1.15C12.98,2.19,13.36,2,13.66,2c0.12,0,0.46,0,0.5,0.76c0.47,7.79,0.57,15.83,0.31,23.91
					C14.44,27.47,13.92,27.83,13.44,27.83L13.44,27.83z"/>
			</g>
			<g>
				<path class="st1" d="M7.53,25.6c-0.31,0-0.6-0.2-0.76-0.51c-0.19-0.38-0.12-0.84,0.2-1.24c1.33-1.71,2.73-3.4,4.21-5.18
					c3.95-4.74,8.03-9.64,10.58-15.08c0.36-0.76,0.91-0.85,1.13-0.85c0.29,0,0.54,0.12,0.68,0.33c0.16,0.25,0.14,0.61-0.06,1.02
					c-2.69,5.73-6.93,10.9-11.03,15.9c-1.36,1.66-2.77,3.37-4.08,5.06C8.13,25.41,7.83,25.6,7.53,25.6L7.53,25.6z"/>
			</g>
			<g>
				<path class="st1" d="M2.49,18.88c-0.13,0-0.39,0-0.43-0.57c-0.05-0.82,0.49-1.89,1.25-1.99c7.98-1.02,16.07-2.01,24.05-2.94
					c0.04,0,0.08-0.01,0.12-0.01c0.13,0,0.41,0,0.45,0.59c0.05,0.82-0.5,1.88-1.25,1.96c-8,0.94-16.1,1.93-24.07,2.95
					C2.57,18.88,2.53,18.88,2.49,18.88z"/>
			</g>
		</g>
	</g>
</g>
</svg>
