<?xml version="1.0" encoding="utf-8"?>
<!-- Generator: Adobe Illustrator 26.3.1, SVG Export Plug-In . SVG Version: 6.00 Build 0)  -->
<svg version="1.1" id="Layer_1" xmlns="http://www.w3.org/2000/svg" xmlns:xlink="http://www.w3.org/1999/xlink" x="0px" y="0px"
	 viewBox="0 0 29.33 29.83" style="enable-background:new 0 0 29.33 29.83;" xml:space="preserve">
<style type="text/css">
	.st0{fill:none;stroke:#4D4D4F;stroke-width:1.8;stroke-miterlimit:10;}
	.st1{fill:#282829;}
</style>
<rect x="2.28" y="2.35" class="st0" width="24.35" height="24.35"/>
<g>
	<g>
		<g>
			<path class="st1" d="M22.55,23.54c-0.14,0-0.28-0.05-0.43-0.17C15.75,18.62,9.7,13.34,4.14,7.67C3.72,7.24,3.82,6.51,4.03,6.02
				C4.28,5.42,4.67,5.1,4.92,5.1c0.11,0,0.22,0.06,0.35,0.19c5.62,5.72,11.72,11.05,18.14,15.85c0.5,0.37,0.31,1.09,0.24,1.3
				C23.45,23.06,22.97,23.54,22.55,23.54L22.55,23.54z"/>
		</g>
		<g>
			<path class="st1" d="M7.23,25.6c-0.31,0-0.6-0.2-0.76-0.51c-0.19-0.38-0.12-0.84,0.2-1.24c1.33-1.71,2.73-3.4,4.21-5.18
				c3.95-4.74,8.03-9.64,10.58-15.08c0.36-0.76,0.91-0.85,1.13-0.85c0.29,0,0.54,0.12,0.68,0.33c0.16,0.25,0.14,0.61-0.06,1.02
				c-2.69,5.73-6.93,10.9-11.03,15.9c-1.36,1.66-2.77,3.37-4.08,5.06C7.83,25.41,7.53,25.6,7.23,25.6L7.23,25.6z"/>
		</g>
	</g>
</g>
</svg>
